<svg viewBox="0 0 185.33 191.31" xmlns="http://www.w3.org/2000/svg" data-name="Layer 2" id="Layer_2">
  <defs>
    <style>
      .cls-1 {
        fill: #235a49;
        fill-rule: evenodd;
      }
    </style>
  </defs>
  <g data-name="Layer 1" id="Layer_1-2">
    <path d="M129.85,149.04l10.91,10.89-1.49,1.49,28.65,28.65c.79.79,1.87,1.24,2.99,1.24h4.92c1.12,0,2.2-.45,2.99-1.24l5.26-5.25c.8-.79,1.24-1.87,1.24-3v-4.94c0-1.12-.45-2.2-1.24-2.99l-28.65-28.65-1.49,1.49-10.88-10.89c4.04-6.44,6.4-14.07,6.4-22.25,0-23.1-18.74-41.85-41.85-41.85s-41.85,18.75-41.85,41.85,18.74,41.85,41.85,41.85c8.19,0,15.81-2.35,22.24-6.41h0ZM104.62,5.98V0H38.86v5.98H0v185.33h143.48v-17.94h-5.98v11.96H5.98V11.96h32.88v17.94h65.76V11.96h32.88v62.77h5.98V5.98h-38.86ZM155.44,153.69l22.67,22.67c.79.79,1.24,1.87,1.24,2.99h0c0,1.12-.44,2.2-1.24,2.99l-1.74,1.74c-.79.8-1.87,1.24-3,1.24h-.02c-1.12,0-2.2-.45-2.99-1.24l-22.67-22.67,7.74-7.73ZM16.71,143.48l13.18,13.19,22.15-22.16-4.21-4.23-17.94,17.94-8.97-8.97-4.21,4.23ZM139.48,140.71c-1.46,1.7-3.05,3.29-4.75,4.74l10.25,10.24,4.75-4.74-10.25-10.24ZM56.8,152.45h17.94v-5.98h-17.94v5.98ZM107.61,77.72c19.79,0,35.87,16.07,35.87,35.87s-16.08,35.87-35.87,35.87-35.87-16.07-35.87-35.87,16.08-35.87,35.87-35.87ZM79.48,113.59l19.16,19.17,34.11-34.12-4.21-4.23-29.89,29.89-14.95-14.95-4.21,4.23ZM16.71,101.63l13.18,13.19,22.15-22.16-4.21-4.23-17.94,17.94-8.97-8.97-4.21,4.23ZM16.71,59.79l13.18,13.19,22.15-22.16-4.21-4.23-17.94,17.94-8.97-8.97-4.21,4.23ZM56.8,68.75h26.9v-5.98h-26.9v5.98ZM56.8,56.8h68.75v-5.98H56.8v5.98ZM44.84,5.98h53.81v17.94h-53.81V5.98Z" class="cls-1"></path>
  </g>
</svg>