<svg viewBox="0 0 235.03 275.41" xmlns="http://www.w3.org/2000/svg" data-name="Layer 2" id="Layer_2">
  <defs>
    <style>
      .cls-1 {
        fill: #235a49;
      }
    </style>
  </defs>
  <g data-name="Layer 1" id="Layer_1-2">
    <g>
      <g>
        <path d="M123.27,267.07c.03,1.38-1.06,2.52-2.44,2.55-1.38.03-2.52-1.06-2.55-2.44-.03-1.38,1.06-2.52,2.44-2.55,1.38-.03,2.52,1.06,2.55,2.44Z" class="cls-1"></path>
        <path d="M120.69,275.41s.14-4.99,4.88-8.34c0,0-1.05,5.18-4.88,8.34Z" class="cls-1"></path>
        <path d="M120.78,275.41s-.36-4.98-5.25-8.11c0,0,1.28,5.12,5.25,8.11Z" class="cls-1"></path>
        <rect transform="translate(-6.13 2.81) rotate(-1.3)" height="6.65" width=".58" y="268.39" x="120.45" class="cls-1"></rect>
      </g>
      <g>
        <g>
          <path d="M109.1,256.47c.03,1.38-1.06,2.52-2.44,2.55-1.38.03-2.52-1.06-2.55-2.44-.03-1.38,1.06-2.52,2.44-2.55,1.38-.03,2.52,1.06,2.55,2.44Z" class="cls-1"></path>
          <path d="M106.53,264.81s.14-4.99,4.88-8.34c0,0-1.05,5.18-4.88,8.34Z" class="cls-1"></path>
          <path d="M106.61,264.81s-.36-4.98-5.25-8.11c0,0,1.28,5.12,5.25,8.11Z" class="cls-1"></path>
          <rect transform="translate(-5.9 2.49) rotate(-1.3)" height="6.65" width=".58" y="257.79" x="106.28" class="cls-1"></rect>
        </g>
        <g>
          <path d="M142.44,259.79c.02,1.04-.8,1.9-1.84,1.93-1.04.02-1.9-.8-1.93-1.84-.02-1.04.8-1.9,1.84-1.93,1.04-.02,1.9.8,1.93,1.84Z" class="cls-1"></path>
          <path d="M140.49,266.1s.1-3.77,3.69-6.31c0,0-.79,3.92-3.69,6.31Z" class="cls-1"></path>
          <path d="M140.55,266.1s-.27-3.77-3.97-6.13c0,0,.97,3.88,3.97,6.13Z" class="cls-1"></path>
          <rect transform="translate(-5.91 3.24) rotate(-1.29)" height="5.03" width=".44" y="260.79" x="140.3" class="cls-1"></rect>
        </g>
        <g>
          <path d="M121.51,255.51c.8-2.91,1.49-5.72-.63-8.51-2-2.63-3.43-5.58-2.67-9.44,1.28,1.69,2.18,3.33,3.03,5.02.86,1.71.85,3.61,1.49,5.43.44-2.92.88-5.84,1.33-8.77.12.02.25.04.37.05-.37,2.43-.73,4.85-1.1,7.28,1.79-2.68,3.85-4.93,6.74-6.87-.31,2.29-.97,4.05-2.37,5.47-.93.93-1.84,1.94-2.92,2.67-2.19,1.49-2.3,3.66-2.18,6.03,1.71-3.92,4.72-6.6,8.44-9.39-.53,2.45-1,4.35-2.21,5.98-1.86,2.49-4.5,4.19-6.61,6.44-.56.6-.96.22-1.3-.37-1.03-1.8-2.06-3.6-3.15-5.37-1.66-2.68-2.19-5.57-1.7-9.08,3.11,4.18,5.32,8.34,5.44,13.42Z" class="cls-1"></path>
          <path d="M124.14,239.72c-1.14-1.45-.87-2.87.68-3.83,1.22,1.17.96,2.76-.68,3.83Z" class="cls-1"></path>
        </g>
        <path d="M147.17,229.09c6.26,1.12,13.99,4.83,18.88,8.9-3.47-.73-6.69-2.06-9.87-3.54-3.16-1.53-6.21-3.18-9.01-5.36h0Z" class="cls-1"></path>
        <path d="M134.45,229.8c15.12,1.98,31.02,9.12,42.66,18.96,1.21,1.09,2.4,2.2,3.57,3.33-1.83-1.17-3.53-2.48-5.38-3.6-12.59-8.21-26.5-14.24-40.85-18.68h0Z" class="cls-1"></path>
        <path d="M136.97,235.2c11.93.87,25.01,5.99,34.86,12.73,3.48,2.29,6.66,5.02,9.61,7.93-6.8-4.68-13.79-8.94-21.3-12.34-7.44-3.45-15.22-6.24-23.17-8.32h0Z" class="cls-1"></path>
        <path d="M136.34,238.56c13.61,1.2,27.93,7.88,38.38,16.58,1.56,1.27,2.99,2.7,4.43,4.1-.85-.55-1.68-1.11-2.51-1.67-12.3-8.46-25.91-14.97-40.3-19.01h0Z" class="cls-1"></path>
        <path d="M137.4,243.14c13.49,1.63,30.47,8.16,39.2,18.94-1.45-1.15-2.89-2.27-4.4-3.3-10.61-7.19-22.71-11.58-34.8-15.64h0Z" class="cls-1"></path>
        <path d="M136.34,248.26c2.18-.28,4.45-.11,6.64.14,4.85.66,9.56,2.19,14,4.24.82.42,2.79,1.37,3.55,1.83.83.48,2.05,1.2,2.87,1.69,1.65,1.12,3.32,2.22,4.86,3.49,2.02,1.57,4.12,3.51,5.89,5.33-2.16-1.36-4.43-2.98-6.61-4.31-6.57-4.18-13.59-7.72-21.02-10.12-3.31-1.05-6.71-1.91-10.18-2.31h0Z" class="cls-1"></path>
        <path d="M131.88,249.84c3.7-.1,7.43.57,11.01,1.52,8.99,2.4,17.35,7.01,24.43,13.01,1.4,1.2,2.72,2.51,4.03,3.81-2.24-1.43-4.64-3.14-6.92-4.54-10-6.32-20.9-11.42-32.55-13.81h0Z" class="cls-1"></path>
        <path d="M25.78,252.19c20.43-13.82,47.73-20,71.86-20.59,8.37-.19,30.86-1.23,39.13-.04-10.42-.21-34.9,1.52-45.25,2.47-22.62,2.27-45.28,7.58-65.74,18.16h0Z" class="cls-1"></path>
        <path d="M32.18,254.5c-.03-.05.05-.1.08-.14.04-.04.08-.08.13-.11,1.35-1.05,2.85-1.88,4.33-2.72,4.78-2.61,9.78-4.74,14.88-6.57,20.39-7.17,42.4-9.8,63.77-7.08-21.36.13-42.68,2.71-63.22,8.92-5.12,1.55-10.2,3.28-15.16,5.34-1.54.66-3.11,1.3-4.58,2.13-.05.03-.1.06-.14.09-.03.03-.12.07-.09.12h0Z" class="cls-1"></path>
        <path d="M37.7,258.65c18.82-12.97,43.32-17.8,65.59-15.73,2.24.28,4.78.61,7,.96-6.24.04-12.49-.05-18.7.52-18.54,1.38-37.03,5.96-53.89,14.24h0Z" class="cls-1"></path>
        <path d="M43.21,261.42c.23-.01.58-.28.8-.38,3.91-2.31,7.96-4.42,12.14-6.16,13.25-5.47,28.55-8.84,42.44-4.07-17.84-2.36-35.32,3.36-51.96,9.5-.52.19-2.03.74-2.55.91-.19.05-.67.26-.87.21h0Z" class="cls-1"></path>
        <path d="M45.64,266.03c13.61-8.22,33.34-15.5,48.99-10.61-2.13-.14-4.23-.2-6.32-.12-12.59.54-24.73,4.53-36.61,8.69-1.75.58-4.28,1.59-6.06,2.04h0Z" class="cls-1"></path>
        <g>
          <g>
            <path d="M110.09,47.16c4.63,1.65,7.38.25,8.81-4.38-4.02-1.8-7.3-.21-8.81,4.38ZM79.02,139.32c-1.96,4.47-.57,7.65,3.83,9.04,2.1-4.01.82-7.11-3.83-9.04ZM55.08,97.81c3.56,3.42,6.99,3.32,9.77-.18-3.01-3.39-6.78-3.36-9.77.18ZM75.77,94.82c4.33-1.55,5.75-5.58,3.32-9.11-4.19,1.66-5.49,5.08-3.32,9.11ZM216.82,71.16c-2.48-4.35-6.57-5.31-9.5-2.32,2.78,4.1,5.55,4.81,9.5,2.32ZM181.8,92.43c-4.68.5-6.96,3.84-5.55,7.92,4.44-.42,6.53-3.34,5.55-7.92ZM86.83,48.71c2.56-3.28.84-7.59-3.55-8.93-2.05,4-.91,6.86,3.55,8.93ZM60.34,43.12c-1.93,4.37-.19,8.06,4.02,8.78,1.83-4.32.44-7.46-4.02-8.78ZM68.8,159.31c3.65-2.65,3.85-7.13.43-9.64-3.59,3.04-3.74,6.51-.43,9.64ZM188.42,37.62c-3.44,3.27-3.25,6.86.51,9.75,3.3-3.49,3.12-6.91-.51-9.75ZM41.84,46.16c4.06-2.7,4.67-6.69,1.57-9.55-3.87,2.53-4.43,5.76-1.57,9.55ZM103.59,140.85c-3.69,3.39-3.79,6.54-.45,9.79,3.56-3.01,3.76-6.6.45-9.79ZM115.83,18.4c-1.04-4.28-6.15-5.83-9.09-3.32,2.12,4.41,5.55,5.66,9.09,3.32ZM125.4,11.32c-4.76.56-6.97,3.44-5.96,7.62,4.64.23,7.14-3.8,5.96-7.62ZM96.8,140.93c-4.08,2.62-4.74,6.19-1.87,9.56,3.95-2.11,4.69-5.71,1.87-9.56ZM55.08,13.53c-1.85,4.38-.43,7.65,3.78,8.95,2.22-3.85.74-7.44-3.78-8.95ZM0,58.92c1.01,4.72,4.58,6.74,8.39,4.87-.84-4.38-3.97-6.24-8.39-4.87ZM62.14,150.41c4.41.18,7.08-3.09,6.13-7.5-4.62.23-6.88,2.99-6.13,7.5ZM86.72,20.25c-2.55-4.26-6.07-5.12-9.48-2.44,1.99,4.1,5.09,4.93,9.48,2.44ZM130.28,58.51c.37,4.52,3.57,6.75,7.86,5.49-.38-4.55-3.54-6.75-7.86-5.49ZM62.15,141.9c-4.09-1.83-7.77.15-8.56,4.61,4.32,1.53,7.54-.2,8.56-4.61ZM164.22,99.71c-3.57-3.34-7.31-3.15-9.81.38,3.16,3.32,6.85,3.21,9.81-.38ZM39.91,141.05c-3.17,3.64-2.78,6.99,1.01,9.74,3.15-3.39,2.83-6.79-1.01-9.74ZM124.15,39.72c-1.72-4.42-6.46-5.37-9.29-2.79,1.82,4.07,5.12,5.1,9.29,2.79ZM30.47,56.21c-1.83-4.74-6.54-5.51-9.2-3.29,1.47,4.2,4.95,5.48,9.2,3.29ZM31.96,74.56c4.16-2.03,5.17-6.09,2.32-9.37-4.12,2.4-4.97,5.83-2.32,9.37ZM173.23,122.27c2.81-3.13,2.93-7.24-1.25-9.8-2.98,3.74-2.59,6.96,1.25,9.8ZM95.84,64.81c2.82-3.76,1.51-8.67-2.48-9.27-2.28,4.28-1.49,7.22,2.48,9.27ZM182.45,119.14c1.92-4.63.35-8.14-3.93-9.04-1.66,4.57-.6,7.07,3.93,9.04ZM13.5,100.13c-4.11-2.35-7.9-.99-9.12,3.16,3.83,2.26,7.19,1.14,9.12-3.16ZM74.31,136.13c1.23-4.67-.75-7.75-5.19-8.3-1.65,4.47,1.22,7.85,5.19,8.3ZM116.94,33.06c4.45,1.95,7.61.61,9.1-3.78-3.95-2.07-7.33-.71-9.1,3.78ZM100.26,10.22c-4.63,1.94-6.12,5.66-3.68,8.96,4.46-1.94,5.75-4.99,3.68-8.96ZM41.3,113.57c-3.58,3.44-3.61,6.65-.19,9.83,3.52-2.82,3.63-6.37.19-9.83ZM202.61,97.38c2.14,4.53,5.56,5.78,9.2,3.47-1.87-4.42-5.18-5.7-9.2-3.47ZM43.38,76.53c1.81-4.25-.1-7.84-4.53-8.51-1.63,4.23.13,7.53,4.53,8.51ZM11.74,111.02c4.49-.68,6.75-4.79,4.63-8.41-3.86.72-6.43,4.06-4.63,8.41ZM112.53,79.51c1.86-4.24-.07-8.06-4.27-8.75-1.76,4.17-.34,7.16,4.27,8.75ZM36.95,140.96c3.15-3.85,2.83-6.98-.86-9.69-3.28,2.98-2.96,6.95.86,9.69ZM131.62,118.94c2.04-4.12.33-7.93-3.95-8.83-1.92,4.16-.47,7.41,3.95,8.83ZM29.57,108.82c3.28-3.69,2.88-7.52-.89-9.68-3.11,3.56-2.84,6.78.89,9.68ZM158.93,108.4c-1.21-4.89-3.88-6.57-8.12-5.23.3,4.36,3.78,6.66,8.12,5.23ZM75.62,31.74c-4.18-2.74-8.34-1.7-9.46,2.24,4.04,2.5,7.16,1.8,9.46-2.24ZM31.75,36.23c-1.39,3.61,1.22,8.1,5.7,7.79.9-4.51-1.08-7.27-5.7-7.79ZM231.59,93.4c-1.92-4.52-5.11-5.82-9.01-3.74.99,4.46,6.01,5.87,9.01,3.74ZM181.77,26.92c4.55-1.21,6.23-4.53,4.48-8.65-4.25.73-6.04,4.09-4.48,8.65ZM62.32,23.06c4.4-.06,6.92-3.4,5.76-7.61-4.46.03-6.86,3.2-5.76,7.61ZM96.67,36.07c-4.51-1.67-7.58-.1-8.87,4.38,4.29,1.75,7,.44,8.87-4.38ZM185.1,100.61c4.64-.65,6.76-3.63,5.68-7.81-4.51.16-6.83,3.26-5.68,7.81ZM175.98,22.17c-2.7,3.92-1.64,8.02,2.41,9.37,2.57-3.84,1.7-7.25-2.41-9.37ZM164.32,11.1c-3.63,3.29-3.51,7.03.19,9.77,3.28-3.36,3.25-6.36-.19-9.77ZM82.13,13.66c-2.15-4.19-6.18-5.19-9.45-2.33,2.28,4.07,5.69,4.91,9.45,2.33ZM119.69,51.61c-1.53-3.11-6.73-4.24-9.7-.12,3.04,3.26,6.31,3.34,9.7.12ZM46.5,66.12c4.63.76,7.43-1.55,7.61-6.15-4.27-.98-7.05,1.23-7.61,6.15ZM47,147.72c4.02-1.2,6.11-5.58,3.49-9.04-3.39,1.04-5.93,4.51-3.49,9.04ZM88.41,60.96c2.53-4.23,1.62-7.76-2.32-9.48-2.65,3.87-1.89,7.11,2.32,9.48ZM4.33,117.56c3.03,3.98,6.57,4.53,9.67,1.6-2.63-3.96-6.05-4.55-9.67-1.6ZM75.02,77.24c-4.47,1.97-5.77,5.77-3.25,9.15,4.21-1.73,5.45-5.11,3.25-9.15ZM221.11,93.48c.11-4.62-3.15-7.51-7.26-6.42.03,4.59,2.87,7.1,7.26,6.42ZM76.45,70.53c3.48,3.4,6.71,3.27,9.83-.29-2.47-3.17-6.85-3.41-9.83.29ZM15.35,65.57c1.28-4.6-1.22-8.14-5.53-8.07-.73,4.78.88,7.18,5.53,8.07ZM217.42,53.47c-4.61-.96-7.38,1-7.95,5.51,4.13,1.41,7.47-.85,7.95-5.51ZM190.34,88.19c-3.5-3.17-7.22-2.61-9.75,1.4,3.69,2.88,6.56,2.51,9.75-1.4ZM191.76,90.01c2.17,4.52,5.98,5.82,9.13,3.22-2.07-4.34-5.3-5.52-9.13-3.22ZM129.59,106.01c.48-4.28-2.61-7.18-7.02-6.58-.17,4.64,2.59,7.23,7.02,6.58ZM28.79,59.9c2.26,4.03,6.03,4.71,9.61,1.74-2.65-3.96-5.94-4.55-9.61-1.74ZM93.84,13.83c2.57-3.19,1.66-7.89-2.58-9.37-2.53,3.74-1.61,7.09,2.58,9.37ZM145.05,32.64c2.54,4.46,5.86,5.42,9.4,2.84-1.93-4.16-5.25-5.19-9.4-2.84ZM50.25,120.35c1.63-4.53.04-7.64-4.37-8.77-1.87,4.04-.38,7.13,4.37,8.77ZM78.56,56.61c4.33-1.43,5.81-5.71,3.15-9.1-4.22,1.99-5.29,5.07-3.15,9.1ZM40.04,60.77c4.35,2.25,7.91.89,9.11-3.35-4.1-2.1-7.34-.95-9.11,3.35ZM168.78,38.03c.07-4.62-3.38-7.43-7.42-6.04.29,4.51,3.07,6.76,7.42,6.04ZM203.26,52.22c-2.4,4.09-1.1,7.98,2.99,9.27,2.26-4.06,1.27-7.22-2.99-9.27ZM159.01,37.26c-2.05,4.02-.31,7.86,4.02,8.83,1.82-4.29.44-7.32-4.02-8.83ZM202.38,90.02c3.09-3.68,2.8-7-.84-9.73-3.33,3.25-2.98,7.18.84,9.73ZM134.58,102.14c-3.54,3.28-3.63,6.84-.31,9.77,3.59-2.6,3.64-6.74.31-9.77ZM185.02,39.61c-1.93-4.35-5.76-5.48-9.23-2.87,1.73,4.07,4.96,5.1,9.23,2.87ZM217.21,75.1c-4.51,1.23-6.29,5-4.11,8.7,4.53-1.54,6.1-4.87,4.11-8.7ZM209.92,85.33c2.04-4.23.21-8.14-4.04-8.88-1.81,4.1-.63,6.79,4.04,8.88ZM167.98,26.17c-1.02,4.77,1.29,8.04,5.51,7.99.98-4.55-.9-7.36-5.51-7.99ZM55.57,45.6c-3.58,2.95-3.52,7.26.01,9.63,3.41-2.97,3.44-6.39-.01-9.63ZM116.64,110.76c4.13,2.36,8.14.96,9.14-3.06-4.14-2.21-7.41-1.14-9.14,3.06ZM145.3,29.79c4.72,1,7.84-1.29,7.88-5.65-4.4-1.04-7.13.87-7.88,5.65ZM171.13,42.01c1.96,4.34,5.94,5.49,9.38,2.78-2.45-4.2-5.23-5.07-9.38-2.78ZM135.71,91.75c4.54,1.44,7.47-.28,8.48-4.88-4.41-1.76-7.89.87-8.48,4.88ZM66.15,68.99c.75-4.6-2.32-7.92-6.6-7.32-.23,4.67,1.68,6.81,6.6,7.32ZM151.33,46.15c-4.69-.58-7.1,1.38-7.61,6.1,4.12,1.2,7.23-1.22,7.61-6.1ZM194.29,46.6c4.46-1.98,5.73-5.37,3.49-9.16-4.46,1.34-5.7,5.95-3.49,9.16ZM49.25,107.88c-.7-4.83-4.46-7.1-8.18-5.05,1.21,4.55,3.8,6.19,8.18,5.05ZM199.66,100.38c-.94,4.56,1.66,7.79,5.95,7.59,1.08-4.98-2.31-7.51-5.95-7.59ZM53.42,37.96c3.04,4.07,6.27,4.57,9.7,1.61-2.82-3.95-6.09-4.52-9.7-1.61ZM52.64,136.28c3.65-3.27,3.63-7.38.05-9.77-3.39,3.26-3.44,5.97-.05,9.77ZM200.81,44.43c4.85.83,8.08-1.58,7.85-5.73-4.57-.85-7.3,1.1-7.85,5.73ZM68.75,65.82c2.89,3.44,7.09,3.31,9.71-.31-3.33-3.32-6.73-3.22-9.71.31ZM21.74,100.71c-3.28,3.44-2.95,7.43.8,9.7,3.14-3.44,2.87-6.63-.8-9.7ZM81.61,133.05c1.4-4.34-.72-7.75-5.05-8.14-1.77,4.02,1.06,7.91,5.05,8.14ZM44.88,140.32c3.07-3.74,2.7-7.26-.91-9.62-3.25,2.93-2.9,7.14.91,9.62ZM208.39,103.93c-.99,4.7,1.35,7.91,5.68,7.95,1.02-4.36-.88-7.09-5.68-7.95ZM32.48,139.92c-3.5,1.43-5.05,6.26-1.86,9.43,3.91-1.87,4.68-5.75,1.86-9.43ZM106.61,19.72c-4.6-1.76-8.56.23-8.73,4.25,4.43,1.56,7.3.2,8.73-4.25ZM73.21,24.8c2.01,4.15,5.98,5.13,9.41,2.31-2.49-4.16-5.75-4.97-9.41-2.31ZM218.33,62.04c-3.71-2.78-7.84-1.81-9.47,2.23,3.76,2.61,7.28,1.78,9.47-2.23ZM53.07,87.69c.88,4.63,3.88,6.55,8.04,5.25-.21-4.39-3.57-6.65-8.04-5.25ZM65.18,29.83c4.58-.31,6.63-2.98,5.95-7.61-4.28-.26-6.81,2.91-5.95,7.61ZM117.19,65.08c-3.63-3.25-8.11-2.78-9.66.89,3.31,3.06,6.45,2.8,9.66-.89ZM180.42,68.34c-2.72-3.65-6.73-3.81-9.79-.4,3.35,3.57,6.44,3.7,9.79.4ZM198.73,57.33c.12-4.7-3.02-7.51-7.11-6.5-.15,4.48,2.42,6.88,7.11,6.5ZM15.41,88.63c-.26,4.44,2.74,7.17,7.11,6.48.17-4.58-2.75-7.24-7.11-6.48ZM73.51,141.84c-3.18,3.74-2.84,7.31.83,9.82,3.22-3.42,2.98-6.66-.83-9.82ZM87.32,13.63c-.38,4.81,2.01,7.45,6.5,7.32.75-4.33-1.67-7.12-6.5-7.32ZM139.16,12.75c3.76-3.22,3.75-7.7.09-9.66-3.34,3.37-3.4,6.34-.09,9.66ZM104.67,4.74c-.33,4.6,2.33,7.27,6.83,6.87.24-4.71-2.54-7.51-6.83-6.87ZM146.43,62.22c-.71,4.19,2.54,7.56,6.68,6.79.76-4.43-3.03-7.73-6.68-6.79ZM134.79,74.07c1.89-4.37.1-8.34-3.88-8.84-1.86,4.19-.54,7.3,3.88,8.84ZM88.9,11.9c-.48-4.77-3.94-7.22-7.79-5.65.42,4.48,3.25,6.58,7.79,5.65ZM25.66,144.26c-3.74,1.51-4.86,6.62-1.73,9.55,3.41-1.93,4.89-5.61,1.73-9.55ZM21.74,41.27c2.47,4.27,6.42,5.14,9.51,2.16-2.52-3.99-5.28-4.66-9.51-2.16ZM86.04,82.56c4.46-1.87,5.77-5.54,3.33-9.11-4.27,1.85-5.46,4.98-3.33,9.11ZM142.63,24.11c4.76.76,7.43-1.18,7.91-5.65-4.38-1.22-7.54.97-7.91,5.65ZM128.94,3.04c-3.48,3.58-3.31,7.23.32,9.73,3.23-3.23,3.15-6.7-.32-9.73ZM71.83,74.89c-4.11-2.22-7.76-.78-9.12,3.49,4.24,2,7.27.87,9.12-3.49ZM85.86,30.88c2.9,4.1,6.2,4.75,9.63,1.98-2.69-4.11-5.85-4.8-9.63-1.98ZM58.01,26.35c-2.46-4.08-6.42-4.82-9.54-1.88,2.44,3.92,5.8,4.62,9.54,1.88ZM89.54,140.22c-4.36,2.16-5.39,5.81-2.72,9.3,4.11-2.03,5.14-5.43,2.72-9.3ZM19.73,134.19c-2.58,3.75-1.42,7.64,2.78,9.3,2.39-4.04,1.45-7.2-2.78-9.3ZM23.73,79.53c1.79,4.59,5.54,6.1,8.9,3.72-1.61-4.36-4.72-5.69-8.9-3.72ZM77.65,33.4c1.92,4.21,6.36,5.31,9.32,2.31-2.32-4.03-5.54-4.83-9.32-2.31ZM29.18,130.26c-3.98,2.59-4.64,6.28-1.69,9.49,3.97-2.3,4.63-5.96,1.69-9.49ZM118.19,122.51c4.33-.96,6.11-5.23,3.71-8.9-4.26,1.58-5.57,4.72-3.71,8.9ZM148.78,55.26c.99,4.72,4.3,6.8,8.08,5.08-.71-4.63-4.05-6.73-8.08-5.08ZM148.14,16.27c4.29-1.08,5.94-4.77,3.93-8.8-4.2.88-5.83,4.53-3.93,8.8ZM132.13,11.41c-1.16,4.39,1.07,7.43,5.66,7.71,1.3-4.11-1.06-7.32-5.66-7.71ZM14.08,82.72c4.68,1.05,7.94-1.37,7.93-5.76-4.34-.92-6.83.84-7.93,5.76ZM127.38,23.77c3.48,3.31,8.61,1.73,9.71-1.69-3.85-2.7-6.76-2.23-9.71,1.69ZM53.88,69.19c-.86,4.5,1.52,7.5,6.03,7.58.85-4.53-1.46-7.43-6.03-7.58ZM140.94,32.97c-.14-4.73-3.33-7.26-7.49-6.11.11,4.47,2.67,6.59,7.49,6.11ZM105.55,24.84c-4.44.57-6.93,5.44-4.65,8.52,4.63-1.53,6.07-4.12,4.65-8.52ZM13.21,139.13c-2.42,4.06-1.11,8.02,2.93,9.22,2.26-4.12,1.31-7.23-2.93-9.22ZM37.81,46.97c-3.84-2.5-8.07-.99-9.15,3.22,4.17,2.02,6.88,1.11,9.15-3.22ZM218.92,72.65c4.31-.35,6.45-3.87,4.95-8.15-4.43.13-6.52,4.64-4.95,8.15ZM125.51,19.72c-4.43-.02-6.96,3.14-6.01,7.5,4.43.06,6.93-3.05,6.01-7.5ZM52.19,76.17c1.15-4.43-.92-7.3-5.65-7.87-1.21,4.28,1,7.36,5.65,7.87ZM99.85,41.97c-4.84-1.42-7.63.06-8.74,4.53,4.42,1.57,7.62-.03,8.74-4.53ZM180.46,33.46c4.76.75,7.51-1.25,7.94-5.66-4.41-1.19-7.49.96-7.94,5.66ZM125.67,62.61c3.59-3.1,3.64-6.84.22-9.77-3.42,2.7-3.55,6.21-.22,9.77ZM22.12,126.24c1.25-4.41-1.14-7.77-5.5-7.92-1.17,4.23.81,7.15,5.5,7.92ZM27.28,124.68c3.04-3.58,2.34-7.44-1.7-9.68-2.76,3.6-2.29,6.55,1.7,9.68ZM174.97,85.86c3.59-3.46,3.64-6.89.28-9.81-3.52,3.06-3.65,6.5-.28,9.81ZM49.46,99.87c.95,4.8,5.16,7.27,8.2,4.92-1.12-4.56-3.71-6.16-8.2-4.92ZM155.55,132.27c3.79-2.61,4.05-6.53.7-9.72-3.58,2.77-3.84,5.7-.7,9.72ZM189.94,114.3c.27-4.85-2.43-7.59-6.77-6.98-.48,4.33,1.97,6.92,6.77,6.98ZM76.56,97.39c.51,4.77,4.41,7.17,8.13,5.16-1.08-4.51-3.52-6.1-8.13-5.16ZM171.78,86.98c-2.81-3.29-7.43-3.31-9.72.42,3.36,3.2,6.69,3.08,9.72-.42ZM219.94,80.77c3.72.27,7.44-2.89,6.03-7.5-4.44.16-6.68,2.9-6.03,7.5ZM94.79,50.55c1.25,4.65,5.01,6.58,8.56,4.5-.88-4.43-4.94-6.25-8.56-4.5ZM152.56,86.59c-3.58,3.42-3.58,7.34-.08,9.71,3.4-2.92,3.47-6.46.08-9.71ZM11.53,148.13c-4.37,1.28-5.97,5.41-3.49,8.98,4.26-1.7,5.44-4.75,3.49-8.98ZM125.03,64.98c-2.93,3.78-2.37,7.13,1.51,9.74,2.89-3.67,2.41-7.01-1.51-9.74ZM22.21,113.62c-3.45-3.36-7.28-3.15-9.74.54,3.52,3.19,6.95,3,9.74-.54ZM69.44,108.87c-1.14-4.86-4.48-6.86-8.24-5.06,1.05,4.63,3.85,6.39,8.24,5.06ZM31.97,90.13c3.43.9,7.79-2.27,6.61-6.96-4.77.14-6.92,2.4-6.61,6.96ZM115.27,6.31c-2.83,3.68-1.97,7.5,2.02,9.46,2.7-3.38,1.98-6.95-2.02-9.46ZM202.98,67.27c1-4.61-1.43-7.8-5.76-7.76-.82,4.55,1.13,7.23,5.76,7.76ZM172.84,24.93c1.97-4.34.53-7.72-3.74-9.07-2,4.18-.75,7.32,3.74,9.07ZM134.8,95.04c-3.29-2.76-7.43-1.79-9.34,2.18,3.52,2.75,7.34,1.86,9.34-2.18ZM205.54,48.82c-3.2-3.61-6.87-3.61-9.69-.11,2.69,3.38,6.35,3.46,9.69.11ZM51.05,109.82c.95,4.6,4.72,6.66,8.38,4.7-1.28-4.68-3.94-6.21-8.38-4.7ZM53.36,96.44c.38-4.55-2.3-7.35-6.61-7.05-.91,3.51,1.83,7.75,6.61,7.05ZM154.06,111.87c-2.75-3.98-6.65-4.55-9.6-1.51,2.79,3.88,5.93,4.41,9.6,1.51ZM217.8,95.58c-.41,4.34,2.56,7.13,7.02,6.57.47-4.16-2.57-7.3-7.02-6.57ZM59.43,131.61c4.39-1.35,5.92-5.4,3.54-9.06-4.23,1.72-5.38,4.58-3.54,9.06ZM169.27,93.24c-3.77-3.32-7.02-3.15-9.87.41,3.5,3.28,6.89,3.17,9.87-.41ZM193.39,112.65c-1.09,4.59.9,7.38,5.6,8.07,1.16-4.34-.72-7.09-5.6-8.07ZM76.04,121.31c-4.3-2.41-8.46-1.07-9.29,2.87,4.18,2.2,7.17,1.3,9.29-2.87ZM19.39,66.55c4.12-2,5.1-5.82,2.39-9.33-4.05,1.88-5.06,5.81-2.39,9.33ZM226.81,84.59c-3.93-3.41-6.71-3.3-9.93.27,3.45,3.38,6.65,3.33,9.93-.27ZM90.61,133.64c1.88-4.57.55-7.58-3.86-9-1.99,3.98-.5,7.53,3.86,9ZM77.58,36.48c-4.28-1.02-7.07,1.07-7.83,5.86,4.65,1.51,8.04-2.18,7.83-5.86ZM159.65,85.68c4.28-2.4,5.2-6.45,2.24-9.5-4.04,2.45-4.75,5.29-2.24,9.5ZM141.07,37.83c-3.19-3.38-6.65-3.22-9.65.44,2.89,3.34,6.88,3.16,9.65-.44ZM48.54,36.49c1.61-4.1-.44-7.64-4.81-8.3-1.64,4.13.36,7.59,4.81,8.3ZM181.27,80.52c3.59-3.38,3.62-7.25.07-9.68-3.29,2.57-3.56,7.12-.07,9.68ZM120.15,58.54c-3.69-3.4-7.05-3.29-9.82.2,3.33,3.38,6.77,3.34,9.82-.2ZM72.05,48.97c4.64.77,7.33-1.33,7.73-5.9-4.17-1.24-7.24,1.07-7.73,5.9ZM154.46,30.98c4.9,0,7.46-2.74,6.66-7.01-4.69-.02-6.98,2.33-6.66,7.01ZM4.04,149.24c4.61-1.18,6.35-4.74,4.33-8.6-4.4,1.2-6.01,4.3-4.33,8.6ZM38.5,105.28c1.08-4.56-1.37-7.89-5.62-7.81-.94,4.55.93,7.2,5.62,7.81ZM8.86,123.2c.11,4.75,3.1,7.18,7.43,6.21-.21-4.57-2.86-6.82-7.43-6.21ZM170.53,46.07c-3.08,3.86-2.74,7.17.92,9.8,3.12-3.46,2.83-6.92-.92-9.8ZM47.04,97.23c-2.87-3.95-6.99-4.43-9.57-1.25,2.58,3.74,5.91,4.21,9.57,1.25ZM166.3,117.4c-4.58,2.12-5.93,5.72-3.49,9.05,4.33-1.76,5.6-4.91,3.49-9.05ZM108.7,87.55c-4.78-.23-7.48,2.53-6.9,6.9,4.68.15,6.96-2.08,6.9-6.9ZM192.27,37.71c4.34-2.11,5.34-5.05,3.22-9.15-4.18,1.17-5.56,4.93-3.22,9.15ZM93.94,26.11c-2.36-4.12-6.27-4.94-9.51-1.99,2.44,4.02,5.76,4.71,9.51,1.99ZM140.8,20.28c4.43-1.32,6.01-5.06,3.82-8.83-3.98.99-5.83,4.69-3.82,8.83ZM153.02,38.17c-4.63-.76-7.63,1.76-7.52,6.19,4.75.51,7.27-1.52,7.52-6.19ZM174.17,73.36c-3.39-3.6-7.39-3.63-9.76-.19,3.37,3.44,6.46,3.53,9.76.19ZM140.19,103.82c3.14-3.57,2.62-7.51-1.16-9.6-3.02,3.17-2.63,6.75,1.16,9.6ZM107.92,78.33c-4.94.16-7.19,2.48-6.81,6.87,4.6.38,7.45-2.44,6.81-6.87ZM130.44,42.37c.44,4.7,3.69,6.94,7.85,5.55-.38-4.41-3.13-6.39-7.85-5.55ZM144.64,90.52c-2.23,4.37-.94,7.75,3.37,9.16,2.1-4.01.99-7.15-3.37-9.16ZM27.45,62.08c-4.12,2.14-5.03,5.5-2.52,9.34,3.84-1.15,5.38-5.85,2.52-9.34ZM197.58,83.96c-3.01-3.54-6.73-3.59-9.65-.11,3.17,3.57,6.81,3.61,9.65.11ZM155.55,45.5c-1.82,4.42-.36,7.57,4.04,8.94,1.9-4.22.51-7.38-4.04-8.94ZM193.01,104.14c-.75,4.7,1.71,7.67,6.1,7.52.59-4.66-1.47-7.26-6.1-7.52ZM181.26,65.02c3.21-3.72,2.88-7.14-.85-9.76-3.17,3.2-2.91,6.55.85,9.76ZM105.48,38.08c4.74-1.14,6.56-4.45,4.73-8.41-4.46,1-6.15,3.93-4.73,8.41ZM51.41,41.78c-4.58.79-6.7,4.45-4.91,8.29,4.49-.9,6.24-3.79,4.91-8.29ZM159.22,14.46c-4.56,1.76-5.93,5.3-3.58,8.95,4.43-1.89,5.53-4.55,3.58-8.95ZM130.59,27.84c-3.37,1.28-5.32,5.77-1.98,9.47,4.05-2.56,4.77-6.01,1.98-9.47ZM42.76,52.71c-4.42-2.11-8.04-.71-9.15,3.43,4.18,2.02,7.21.92,9.15-3.43ZM68.94,139.4c-1-4.56-5.03-6.53-8.57-4.19,1.67,4.58,4.33,5.88,8.57,4.19ZM108.31,20.85c-.84,4.36,2.27,7.65,6.64,7.05.16-4.71-1.9-6.89-6.64-7.05ZM36.47,124.12c1.16-4.62-.76-7.53-5.31-8.23-1.3,4.39.6,7.41,5.31,8.23ZM103.26,105.66c4.26-2.21,5.2-5.65,2.56-9.32-4.1,1.78-5.12,5.5-2.56,9.32ZM32.5,109.2c1.66,3.64,6.67,4.56,9.62,1.37-2.8-3.85-6.17-4.33-9.62-1.37ZM129.48,51.16c1.13,4.88,3.88,6.67,7.98,5.31-.29-4.41-3.65-6.7-7.98-5.31ZM156.79,81.99c-2.9-3.06-7.27-2.1-9.4,2.07,3.56,2.59,6.92,1.85,9.4-2.07ZM184.6,69.17c-.91,4.59,1.57,7.68,5.97,7.61.96-4.24-1.11-6.93-5.97-7.61ZM194.1,64.48c-3.26,3.21-2.89,7.39.84,9.64,2.94-2.8,3.03-6.92-.84-9.64ZM126.42,77.3c-4.5-1.53-7.6.14-8.69,4.59,4.32,1.63,7.4.05,8.69-4.59ZM38.98,37.03c2.03-4.21.4-7.8-3.93-8.97-1.75,4.46-.64,7.06,3.93,8.97ZM59.47,148.98c-4.3-.44-7.46,4.33-5.74,7.48,4.66-.37,6.92-3.32,5.74-7.48ZM168.2,55.51c-4.42,1.67-5.79,5.01-3.66,8.96,4.47-1.69,5.93-5.25,3.66-8.96ZM23.51,84.92c-1.07,4.82,1.07,8.05,5.29,8.17,1.05-4.62-.68-7.38-5.29-8.17ZM50.57,33.19c3.37,3.19,8.26,1.91,9.61-1.62-3.98-2.82-7.17-2.29-9.61,1.62ZM126.65,40.92c-4.13,2.68-4.84,6.61-1.83,9.52,3.91-2.36,4.58-5.66,1.83-9.52ZM184.43,53.32c-.23,4.68,2.76,7.48,6.97,6.51.06-4.6-2.6-7.08-6.97-6.51ZM208.22,90.8c-.37,4.51,2.51,7.19,6.99,6.65.1-4.63-2.1-6.76-6.99-6.65ZM15.13,97.48c.13-4.67-2.61-7.3-6.97-6.68-.51,4.65,3.13,7.39,6.97,6.68Z" class="cls-1"></path>
            <path d="M100.93,0c.28,1.19.7,2.36.8,3.56.23,2.73-1.53,5.02-4.33,5.84-1.85-3.05-1.45-5.87,1.15-8.05.49-.41,1.01-.8,1.52-1.2.29-.05.57-.1.86-.15Z" class="cls-1"></path>
            <path d="M235.03,78.78c-1.49,1.17-2.83,2.75-4.52,3.37-1.36.5-3.14-.14-4.87-.29,1.58-4.33,3.97-5.59,7.89-4.56.41.11.84.13,1.26.19.07.43.15.86.22,1.28Z" class="cls-1"></path>
            <path d="M110.09,47.16c1.51-4.59,4.79-6.18,8.81-4.38-1.43,4.62-4.18,6.03-8.81,4.38Z" class="cls-1"></path>
            <path d="M79.02,139.32c4.66,1.92,5.93,5.02,3.83,9.04-4.41-1.39-5.8-4.56-3.83-9.04Z" class="cls-1"></path>
            <path d="M55.08,97.81c2.99-3.54,6.77-3.57,9.77-.18-2.79,3.49-6.21,3.59-9.77.18Z" class="cls-1"></path>
            <path d="M75.77,94.82c-2.17-4.04-.87-7.46,3.32-9.11,2.43,3.53,1.01,7.56-3.32,9.11Z" class="cls-1"></path>
            <path d="M216.82,71.16c-3.95,2.49-6.72,1.78-9.5-2.32,2.93-2.98,7.02-2.03,9.5,2.32Z" class="cls-1"></path>
            <path d="M181.8,92.43c.98,4.59-1.11,7.5-5.55,7.92-1.41-4.08.87-7.42,5.55-7.92Z" class="cls-1"></path>
            <path d="M86.83,48.71c-4.47-2.08-5.61-4.94-3.55-8.93,4.4,1.34,6.12,5.66,3.55,8.93Z" class="cls-1"></path>
            <path d="M60.34,43.12c4.45,1.31,5.84,4.45,4.02,8.78-4.21-.71-5.94-4.41-4.02-8.78Z" class="cls-1"></path>
            <path d="M68.8,159.31c-3.31-3.13-3.16-6.6.43-9.64,3.42,2.51,3.22,6.99-.43,9.64Z" class="cls-1"></path>
            <path d="M188.42,37.62c3.63,2.84,3.8,6.26.51,9.75-3.76-2.89-3.94-6.48-.51-9.75Z" class="cls-1"></path>
            <path d="M41.84,46.16c-2.86-3.8-2.3-7.03,1.57-9.55,3.09,2.86,2.49,6.85-1.57,9.55Z" class="cls-1"></path>
            <path d="M103.59,140.85c3.32,3.2,3.11,6.79-.45,9.79-3.35-3.26-3.24-6.4.45-9.79Z" class="cls-1"></path>
            <path d="M115.83,18.4c-3.54,2.34-6.97,1.08-9.09-3.32,2.93-2.5,8.05-.95,9.09,3.32Z" class="cls-1"></path>
            <path d="M125.4,11.32c1.18,3.82-1.32,7.85-5.96,7.62-1.01-4.17,1.2-7.05,5.96-7.62Z" class="cls-1"></path>
            <path d="M96.8,140.93c2.83,3.85,2.08,7.46-1.87,9.56-2.88-3.37-2.21-6.95,1.87-9.56Z" class="cls-1"></path>
            <path d="M55.08,13.53c4.52,1.51,5.99,5.1,3.78,8.95-4.21-1.29-5.63-4.57-3.78-8.95Z" class="cls-1"></path>
            <path d="M0,58.92c4.42-1.37,7.55.5,8.39,4.87-3.81,1.87-7.38-.15-8.39-4.87Z" class="cls-1"></path>
            <path d="M62.14,150.41c-.75-4.51,1.51-7.27,6.13-7.5.95,4.42-1.72,7.69-6.13,7.5Z" class="cls-1"></path>
            <path d="M86.72,20.25c-4.39,2.48-7.5,1.65-9.48-2.44,3.42-2.68,6.94-1.82,9.48,2.44Z" class="cls-1"></path>
            <path d="M130.28,58.51c4.33-1.26,7.48.94,7.86,5.49-4.29,1.26-7.5-.97-7.86-5.49Z" class="cls-1"></path>
            <path d="M62.15,141.9c-1.02,4.41-4.24,6.14-8.56,4.61.78-4.46,4.46-6.44,8.56-4.61Z" class="cls-1"></path>
            <path d="M164.22,99.71c-2.95,3.59-6.64,3.7-9.81.38,2.5-3.53,6.23-3.72,9.81-.38Z" class="cls-1"></path>
            <path d="M39.91,141.05c3.84,2.95,4.16,6.35,1.01,9.74-3.79-2.75-4.18-6.1-1.01-9.74Z" class="cls-1"></path>
            <path d="M124.15,39.72c-4.17,2.31-7.47,1.29-9.29-2.79,2.83-2.59,7.57-1.63,9.29,2.79Z" class="cls-1"></path>
            <path d="M30.47,56.21c-4.25,2.19-7.73.91-9.2-3.29,2.66-2.22,7.37-1.45,9.2,3.29Z" class="cls-1"></path>
            <path d="M31.96,74.56c-2.65-3.54-1.8-6.97,2.32-9.37,2.85,3.27,1.84,7.33-2.32,9.37Z" class="cls-1"></path>
            <path d="M173.23,122.27c-3.85-2.85-4.24-6.07-1.25-9.8,4.19,2.56,4.06,6.68,1.25,9.8Z" class="cls-1"></path>
            <path d="M95.84,64.81c-3.97-2.05-4.76-5-2.48-9.27,3.99.6,5.31,5.51,2.48,9.27Z" class="cls-1"></path>
            <path d="M182.45,119.14c-4.53-1.97-5.59-4.47-3.93-9.04,4.28.9,5.85,4.41,3.93,9.04Z" class="cls-1"></path>
            <path d="M13.5,100.13c-1.92,4.3-5.28,5.42-9.12,3.16,1.22-4.15,5-5.51,9.12-3.16Z" class="cls-1"></path>
            <path d="M74.31,136.13c-3.97-.45-6.84-3.83-5.19-8.3,4.44.55,6.42,3.63,5.19,8.3Z" class="cls-1"></path>
            <path d="M116.94,33.06c1.77-4.49,5.15-5.85,9.1-3.78-1.5,4.38-4.65,5.73-9.1,3.78Z" class="cls-1"></path>
            <path d="M100.26,10.22c2.07,3.97.78,7.02-3.68,8.96-2.44-3.29-.96-7.02,3.68-8.96Z" class="cls-1"></path>
            <path d="M41.3,113.57c3.44,3.46,3.33,7.01-.19,9.83-3.42-3.18-3.38-6.39.19-9.83Z" class="cls-1"></path>
            <path d="M202.61,97.38c4.02-2.24,7.33-.95,9.2,3.47-3.64,2.31-7.06,1.06-9.2-3.47Z" class="cls-1"></path>
            <path d="M43.38,76.53c-4.4-.98-6.16-4.29-4.53-8.51,4.43.67,6.34,4.26,4.53,8.51Z" class="cls-1"></path>
            <path d="M11.74,111.02c-1.8-4.35.77-7.69,4.63-8.41,2.12,3.62-.14,7.73-4.63,8.41Z" class="cls-1"></path>
            <path d="M112.53,79.51c-4.61-1.58-6.04-4.58-4.27-8.75,4.21.68,6.13,4.51,4.27,8.75Z" class="cls-1"></path>
            <path d="M36.95,140.96c-3.83-2.74-4.14-6.7-.86-9.69,3.69,2.71,4.01,5.84.86,9.69Z" class="cls-1"></path>
            <path d="M131.62,118.94c-4.42-1.42-5.88-4.67-3.95-8.83,4.29.89,6,4.71,3.95,8.83Z" class="cls-1"></path>
            <path d="M29.57,108.82c-3.73-2.9-3.99-6.12-.89-9.68,3.77,2.16,4.17,5.99.89,9.68Z" class="cls-1"></path>
            <path d="M158.93,108.4c-4.34,1.42-7.81-.87-8.12-5.23,4.24-1.33,6.91.35,8.12,5.23Z" class="cls-1"></path>
            <path d="M75.62,31.74c-2.3,4.04-5.42,4.74-9.46,2.24,1.12-3.95,5.28-4.98,9.46-2.24Z" class="cls-1"></path>
            <path d="M31.75,36.23c4.62.52,6.61,3.28,5.7,7.79-4.48.31-7.09-4.18-5.7-7.79Z" class="cls-1"></path>
            <path d="M231.59,93.4c-3,2.13-8.02.72-9.01-3.74,3.9-2.08,7.09-.78,9.01,3.74Z" class="cls-1"></path>
            <path d="M181.77,26.92c-1.56-4.56.23-7.92,4.48-8.65,1.75,4.12.07,7.44-4.48,8.65Z" class="cls-1"></path>
            <path d="M62.32,23.06c-1.09-4.41,1.3-7.57,5.76-7.61,1.16,4.21-1.36,7.54-5.76,7.61Z" class="cls-1"></path>
            <path d="M96.67,36.07c-1.87,4.82-4.57,6.13-8.87,4.38,1.29-4.48,4.36-6.05,8.87-4.38Z" class="cls-1"></path>
            <path d="M185.1,100.61c-1.15-4.55,1.17-7.66,5.68-7.81,1.08,4.18-1.04,7.16-5.68,7.81Z" class="cls-1"></path>
            <path d="M175.98,22.17c4.11,2.11,4.98,5.52,2.41,9.37-4.05-1.35-5.1-5.45-2.41-9.37Z" class="cls-1"></path>
            <path d="M164.32,11.1c3.44,3.42,3.47,6.41.19,9.77-3.7-2.75-3.81-6.48-.19-9.77Z" class="cls-1"></path>
            <path d="M82.13,13.66c-3.75,2.58-7.17,1.74-9.45-2.33,3.26-2.86,7.3-1.87,9.45,2.33Z" class="cls-1"></path>
            <path d="M119.69,51.61c-3.38,3.22-6.66,3.14-9.7-.12,2.97-4.12,8.16-2.99,9.7.12Z" class="cls-1"></path>
            <path d="M46.5,66.12c.56-4.93,3.35-7.13,7.61-6.15-.19,4.6-2.98,6.91-7.61,6.15Z" class="cls-1"></path>
            <path d="M47,147.72c-2.44-4.53.1-8,3.49-9.04,2.61,3.46.53,7.84-3.49,9.04Z" class="cls-1"></path>
            <path d="M88.41,60.96c-4.22-2.36-4.97-5.6-2.32-9.48,3.95,1.72,4.85,5.25,2.32,9.48Z" class="cls-1"></path>
            <path d="M4.33,117.56c3.62-2.96,7.04-2.36,9.67,1.6-3.1,2.93-6.64,2.39-9.67-1.6Z" class="cls-1"></path>
            <path d="M75.02,77.24c2.2,4.05.96,7.43-3.25,9.15-2.53-3.39-1.22-7.18,3.25-9.15Z" class="cls-1"></path>
            <path d="M221.11,93.48c-4.39.69-7.23-1.83-7.26-6.42,4.11-1.09,7.37,1.79,7.26,6.42Z" class="cls-1"></path>
            <path d="M76.45,70.53c2.98-3.7,7.36-3.46,9.83-.29-3.12,3.57-6.35,3.69-9.83.29Z" class="cls-1"></path>
            <path d="M15.35,65.57c-4.65-.89-6.27-3.29-5.53-8.07,4.32-.07,6.81,3.47,5.53,8.07Z" class="cls-1"></path>
            <path d="M217.42,53.47c-.48,4.66-3.81,6.92-7.95,5.51.57-4.51,3.34-6.47,7.95-5.51Z" class="cls-1"></path>
            <path d="M190.34,88.19c-3.19,3.91-6.06,4.28-9.75,1.4,2.53-4.01,6.25-4.57,9.75-1.4Z" class="cls-1"></path>
            <path d="M191.76,90.01c3.83-2.29,7.05-1.11,9.13,3.22-3.14,2.6-6.96,1.29-9.13-3.22Z" class="cls-1"></path>
            <path d="M129.59,106.01c-4.43.64-7.19-1.94-7.02-6.58,4.42-.59,7.51,2.31,7.02,6.58Z" class="cls-1"></path>
            <path d="M28.79,59.9c3.66-2.81,6.95-2.22,9.61,1.74-3.58,2.97-7.35,2.29-9.61-1.74Z" class="cls-1"></path>
            <path d="M93.84,13.83c-4.19-2.28-5.11-5.63-2.58-9.37,4.25,1.48,5.15,6.19,2.58,9.37Z" class="cls-1"></path>
            <path d="M145.05,32.64c4.15-2.35,7.47-1.32,9.4,2.84-3.54,2.58-6.86,1.62-9.4-2.84Z" class="cls-1"></path>
            <path d="M50.25,120.35c-4.75-1.64-6.24-4.73-4.37-8.77,4.42,1.13,6,4.24,4.37,8.77Z" class="cls-1"></path>
            <path d="M78.56,56.61c-2.14-4.02-1.07-7.11,3.15-9.1,2.66,3.39,1.18,7.67-3.15,9.1Z" class="cls-1"></path>
            <path d="M40.04,60.77c1.78-4.3,5.02-5.45,9.11-3.35-1.2,4.25-4.76,5.6-9.11,3.35Z" class="cls-1"></path>
            <path d="M168.78,38.03c-4.36.72-7.13-1.54-7.42-6.04,4.04-1.39,7.49,1.42,7.42,6.04Z" class="cls-1"></path>
            <path d="M203.26,52.22c4.26,2.05,5.25,5.21,2.99,9.27-4.09-1.3-5.39-5.18-2.99-9.27Z" class="cls-1"></path>
            <path d="M159.01,37.26c4.46,1.51,5.84,4.54,4.02,8.83-4.33-.97-6.08-4.81-4.02-8.83Z" class="cls-1"></path>
            <path d="M202.38,90.02c-3.83-2.55-4.17-6.48-.84-9.73,3.64,2.73,3.93,6.05.84,9.73Z" class="cls-1"></path>
            <path d="M134.58,102.14c3.34,3.03,3.28,7.18-.31,9.77-3.32-2.93-3.23-6.5.31-9.77Z" class="cls-1"></path>
            <path d="M185.02,39.61c-4.27,2.24-7.5,1.2-9.23-2.87,3.47-2.62,7.3-1.48,9.23,2.87Z" class="cls-1"></path>
            <path d="M217.21,75.1c1.99,3.83.42,7.15-4.11,8.7-2.18-3.7-.4-7.46,4.11-8.7Z" class="cls-1"></path>
            <path d="M209.92,85.33c-4.67-2.09-5.86-4.78-4.04-8.88,4.26.74,6.08,4.65,4.04,8.88Z" class="cls-1"></path>
            <path d="M167.98,26.17c4.61.63,6.5,3.44,5.51,7.99-4.22.05-6.53-3.22-5.51-7.99Z" class="cls-1"></path>
            <path d="M55.57,45.6c3.45,3.24,3.42,6.66.01,9.63-3.53-2.37-3.59-6.68-.01-9.63Z" class="cls-1"></path>
            <path d="M116.64,110.76c1.73-4.21,5-5.27,9.14-3.06-1,4.02-5.01,5.42-9.14,3.06Z" class="cls-1"></path>
            <path d="M145.3,29.79c.75-4.78,3.48-6.69,7.88-5.65-.04,4.37-3.16,6.65-7.88,5.65Z" class="cls-1"></path>
            <path d="M171.13,42.01c4.15-2.28,6.93-1.42,9.38,2.78-3.44,2.7-7.42,1.56-9.38-2.78Z" class="cls-1"></path>
            <path d="M135.71,91.75c.59-4.01,4.07-6.64,8.48-4.88-1.01,4.59-3.94,6.32-8.48,4.88Z" class="cls-1"></path>
            <path d="M66.15,68.99c-4.92-.5-6.82-2.64-6.6-7.32,4.28-.6,7.35,2.71,6.6,7.32Z" class="cls-1"></path>
            <path d="M151.33,46.15c-.38,4.87-3.49,7.3-7.61,6.1.52-4.72,2.92-6.68,7.61-6.1Z" class="cls-1"></path>
            <path d="M194.29,46.6c-2.2-3.22-.96-7.82,3.49-9.16,2.23,3.79.96,7.19-3.49,9.16Z" class="cls-1"></path>
            <path d="M49.25,107.88c-4.38,1.14-6.97-.5-8.18-5.05,3.72-2.05,7.48.21,8.18,5.05Z" class="cls-1"></path>
            <path d="M199.66,100.38c3.64.08,7.04,2.6,5.95,7.59-4.29.2-6.89-3.03-5.95-7.59Z" class="cls-1"></path>
            <path d="M53.42,37.96c3.61-2.92,6.88-2.34,9.7,1.61-3.43,2.96-6.66,2.46-9.7-1.61Z" class="cls-1"></path>
            <path d="M52.64,136.28c-3.38-3.79-3.34-6.5.05-9.77,3.58,2.38,3.59,6.49-.05,9.77Z" class="cls-1"></path>
            <path d="M200.81,44.43c.55-4.64,3.27-6.59,7.85-5.73.23,4.15-2.99,6.56-7.85,5.73Z" class="cls-1"></path>
            <path d="M68.75,65.82c2.97-3.52,6.38-3.63,9.71-.31-2.62,3.61-6.81,3.74-9.71.31Z" class="cls-1"></path>
            <path d="M21.74,100.71c3.68,3.07,3.94,6.25.8,9.7-3.75-2.26-4.08-6.25-.8-9.7Z" class="cls-1"></path>
            <path d="M81.61,133.05c-3.99-.23-6.82-4.12-5.05-8.14,4.33.39,6.45,3.8,5.05,8.14Z" class="cls-1"></path>
            <path d="M44.88,140.32c-3.82-2.48-4.17-6.69-.91-9.62,3.61,2.36,3.98,5.88.91,9.62Z" class="cls-1"></path>
            <path d="M208.39,103.93c4.8.86,6.7,3.58,5.68,7.95-4.33-.04-6.67-3.25-5.68-7.95Z" class="cls-1"></path>
            <path d="M32.48,139.92c2.82,3.68,2.05,7.56-1.86,9.43-3.19-3.16-1.64-8,1.86-9.43Z" class="cls-1"></path>
            <path d="M106.61,19.72c-1.43,4.45-4.3,5.81-8.73,4.25.16-4.02,4.13-6.01,8.73-4.25Z" class="cls-1"></path>
            <path d="M73.21,24.8c3.66-2.66,6.92-1.85,9.41,2.31-3.43,2.82-7.4,1.84-9.41-2.31Z" class="cls-1"></path>
            <path d="M218.33,62.04c-2.19,4-5.71,4.83-9.47,2.23,1.63-4.03,5.76-5.01,9.47-2.23Z" class="cls-1"></path>
            <path d="M53.07,87.69c4.47-1.39,7.83.86,8.04,5.25-4.16,1.3-7.16-.62-8.04-5.25Z" class="cls-1"></path>
            <path d="M65.18,29.83c-.86-4.7,1.67-7.86,5.95-7.61.68,4.62-1.37,7.3-5.95,7.61Z" class="cls-1"></path>
            <path d="M117.19,65.08c-3.21,3.69-6.34,3.95-9.66.89,1.55-3.67,6.03-4.14,9.66-.89Z" class="cls-1"></path>
            <path d="M180.42,68.34c-3.35,3.3-6.44,3.17-9.79-.4,3.06-3.41,7.07-3.24,9.79.4Z" class="cls-1"></path>
            <path d="M198.73,57.33c-4.7.38-7.26-2.02-7.11-6.5,4.09-1,7.23,1.81,7.11,6.5Z" class="cls-1"></path>
            <path d="M15.41,88.63c4.36-.77,7.29,1.9,7.11,6.48-4.38.69-7.37-2.04-7.11-6.48Z" class="cls-1"></path>
            <path d="M73.51,141.84c3.81,3.16,4.05,6.4.83,9.82-3.67-2.51-4.01-6.08-.83-9.82Z" class="cls-1"></path>
            <path d="M87.32,13.63c4.83.2,7.25,2.99,6.5,7.32-4.49.12-6.89-2.52-6.5-7.32Z" class="cls-1"></path>
            <path d="M104.67,4.74c4.29-.64,7.07,2.16,6.83,6.87-4.49.4-7.15-2.27-6.83-6.87Z" class="cls-1"></path>
            <path d="M146.43,62.22c3.65-.94,7.45,2.36,6.68,6.79-4.14.77-7.4-2.6-6.68-6.79Z" class="cls-1"></path>
            <path d="M134.79,74.07c-4.42-1.55-5.74-4.65-3.88-8.84,3.97.5,5.77,4.47,3.88,8.84Z" class="cls-1"></path>
            <path d="M88.9,11.9c-4.55.93-7.37-1.17-7.79-5.65,3.85-1.57,7.31.88,7.79,5.65Z" class="cls-1"></path>
            <path d="M25.66,144.26c3.16,3.94,1.68,7.62-1.73,9.55-3.13-2.93-2.01-8.04,1.73-9.55Z" class="cls-1"></path>
            <path d="M21.74,41.27c4.22-2.5,6.99-1.83,9.51,2.16-3.08,2.97-7.04,2.11-9.51-2.16Z" class="cls-1"></path>
            <path d="M86.04,82.56c-2.13-4.12-.94-7.26,3.33-9.11,2.44,3.56,1.13,7.24-3.33,9.11Z" class="cls-1"></path>
            <path d="M142.63,24.11c.36-4.67,3.53-6.87,7.91-5.65-.48,4.47-3.14,6.41-7.91,5.65Z" class="cls-1"></path>
            <path d="M128.94,3.04c3.47,3.03,3.55,6.5.32,9.73-3.64-2.5-3.8-6.15-.32-9.73Z" class="cls-1"></path>
            <path d="M71.83,74.89c-1.85,4.36-4.89,5.48-9.12,3.49,1.36-4.27,5.01-5.7,9.12-3.49Z" class="cls-1"></path>
            <path d="M85.86,30.88c3.78-2.82,6.93-2.13,9.63,1.98-3.43,2.77-6.73,2.12-9.63-1.98Z" class="cls-1"></path>
            <path d="M58.01,26.35c-3.74,2.74-7.09,2.04-9.54-1.88,3.11-2.94,7.07-2.2,9.54,1.88Z" class="cls-1"></path>
            <path d="M89.54,140.22c2.43,3.87,1.39,7.27-2.72,9.3-2.67-3.49-1.65-7.14,2.72-9.3Z" class="cls-1"></path>
            <path d="M19.73,134.19c4.23,2.1,5.17,5.26,2.78,9.3-4.19-1.66-5.36-5.55-2.78-9.3Z" class="cls-1"></path>
            <path d="M23.73,79.53c4.18-1.97,7.28-.64,8.9,3.72-3.36,2.38-7.11.87-8.9-3.72Z" class="cls-1"></path>
            <path d="M77.65,33.4c3.78-2.52,7-1.72,9.32,2.31-2.96,2.99-7.4,1.89-9.32-2.31Z" class="cls-1"></path>
            <path d="M29.18,130.26c2.93,3.53,2.28,7.18-1.69,9.49-2.94-3.2-2.28-6.9,1.69-9.49Z" class="cls-1"></path>
            <path d="M118.19,122.51c-1.86-4.18-.55-7.32,3.71-8.9,2.4,3.67.62,7.93-3.71,8.9Z" class="cls-1"></path>
            <path d="M148.78,55.26c4.03-1.65,7.37.46,8.08,5.08-3.78,1.72-7.09-.36-8.08-5.08Z" class="cls-1"></path>
            <path d="M148.14,16.27c-1.9-4.27-.27-7.92,3.93-8.8,2.01,4.03.36,7.72-3.93,8.8Z" class="cls-1"></path>
            <path d="M132.13,11.41c4.6.39,6.96,3.61,5.66,7.71-4.6-.29-6.82-3.32-5.66-7.71Z" class="cls-1"></path>
            <path d="M14.08,82.72c1.1-4.92,3.59-6.68,7.93-5.76,0,4.39-3.25,6.81-7.93,5.76Z" class="cls-1"></path>
            <path d="M127.38,23.77c2.95-3.92,5.86-4.39,9.71-1.69-1.1,3.42-6.23,5-9.71,1.69Z" class="cls-1"></path>
            <path d="M53.88,69.19c4.57.15,6.88,3.05,6.03,7.58-4.51-.08-6.89-3.08-6.03-7.58Z" class="cls-1"></path>
            <path d="M140.94,32.97c-4.82.49-7.38-1.64-7.49-6.11,4.16-1.15,7.35,1.38,7.49,6.11Z" class="cls-1"></path>
            <path d="M105.55,24.84c1.42,4.4-.02,6.99-4.65,8.52-2.28-3.08.21-7.95,4.65-8.52Z" class="cls-1"></path>
            <path d="M13.21,139.13c4.24,1.99,5.19,5.1,2.93,9.22-4.04-1.2-5.35-5.17-2.93-9.22Z" class="cls-1"></path>
            <path d="M37.81,46.97c-2.28,4.33-4.98,5.24-9.15,3.22,1.08-4.21,5.32-5.72,9.15-3.22Z" class="cls-1"></path>
            <path d="M218.92,72.65c-1.57-3.51.52-8.01,4.95-8.15,1.5,4.28-.64,7.8-4.95,8.15Z" class="cls-1"></path>
            <path d="M125.51,19.72c.91,4.45-1.59,7.56-6.01,7.5-.95-4.36,1.58-7.52,6.01-7.5Z" class="cls-1"></path>
            <path d="M52.19,76.17c-4.65-.51-6.86-3.59-5.65-7.87,4.74.57,6.8,3.44,5.65,7.87Z" class="cls-1"></path>
            <path d="M99.85,41.97c-1.12,4.49-4.32,6.1-8.74,4.53,1.11-4.47,3.9-5.95,8.74-4.53Z" class="cls-1"></path>
            <path d="M180.46,33.46c.44-4.7,3.52-6.85,7.94-5.66-.43,4.41-3.17,6.41-7.94,5.66Z" class="cls-1"></path>
            <path d="M125.67,62.61c-3.34-3.56-3.21-7.07.22-9.77,3.43,2.93,3.37,6.67-.22,9.77Z" class="cls-1"></path>
            <path d="M22.12,126.24c-4.69-.77-6.67-3.68-5.5-7.92,4.36.14,6.75,3.5,5.5,7.92Z" class="cls-1"></path>
            <path d="M27.28,124.68c-3.99-3.14-4.46-6.08-1.7-9.68,4.04,2.25,4.74,6.11,1.7,9.68Z" class="cls-1"></path>
            <path d="M174.97,85.86c-3.37-3.31-3.24-6.76.28-9.81,3.37,2.93,3.31,6.35-.28,9.81Z" class="cls-1"></path>
            <path d="M49.46,99.87c4.49-1.25,7.08.35,8.2,4.92-3.04,2.35-7.25-.12-8.2-4.92Z" class="cls-1"></path>
            <path d="M155.55,132.27c-3.14-4.03-2.88-6.96.7-9.72,3.35,3.19,3.09,7.11-.7,9.72Z" class="cls-1"></path>
            <path d="M189.94,114.3c-4.8-.06-7.24-2.65-6.77-6.98,4.33-.61,7.03,2.13,6.77,6.98Z" class="cls-1"></path>
            <path d="M76.56,97.39c4.61-.93,7.05.65,8.13,5.16-3.72,2.01-7.62-.4-8.13-5.16Z" class="cls-1"></path>
            <path d="M171.78,86.98c-3.03,3.5-6.37,3.61-9.72.42,2.3-3.72,6.91-3.71,9.72-.42Z" class="cls-1"></path>
            <path d="M219.94,80.77c-.65-4.6,1.59-7.34,6.03-7.5,1.41,4.61-2.31,7.77-6.03,7.5Z" class="cls-1"></path>
            <path d="M94.79,50.55c3.62-1.75,7.68.07,8.56,4.5-3.55,2.08-7.31.16-8.56-4.5Z" class="cls-1"></path>
            <path d="M152.56,86.59c3.39,3.25,3.31,6.79-.08,9.71-3.5-2.37-3.5-6.29.08-9.71Z" class="cls-1"></path>
            <path d="M11.53,148.13c1.95,4.23.77,7.29-3.49,8.98-2.48-3.58-.88-7.7,3.49-8.98Z" class="cls-1"></path>
            <path d="M125.03,64.98c3.93,2.72,4.41,6.06,1.51,9.74-3.88-2.61-4.44-5.96-1.51-9.74Z" class="cls-1"></path>
            <path d="M22.21,113.62c-2.8,3.54-6.23,3.73-9.74.54,2.47-3.69,6.3-3.9,9.74-.54Z" class="cls-1"></path>
            <path d="M69.44,108.87c-4.39,1.33-7.19-.44-8.24-5.06,3.76-1.8,7.1.21,8.24,5.06Z" class="cls-1"></path>
            <path d="M31.97,90.13c-.31-4.57,1.84-6.83,6.61-6.96,1.18,4.7-3.18,7.86-6.61,6.96Z" class="cls-1"></path>
            <path d="M115.27,6.31c4,2.51,4.73,6.08,2.02,9.46-3.99-1.96-4.85-5.78-2.02-9.46Z" class="cls-1"></path>
            <path d="M202.98,67.27c-4.63-.53-6.58-3.21-5.76-7.76,4.33-.04,6.77,3.15,5.76,7.76Z" class="cls-1"></path>
            <path d="M172.84,24.93c-4.49-1.76-5.74-4.89-3.74-9.07,4.27,1.35,5.71,4.74,3.74,9.07Z" class="cls-1"></path>
            <path d="M134.8,95.04c-1.99,4.04-5.82,4.93-9.34,2.18,1.9-3.97,6.05-4.94,9.34-2.18Z" class="cls-1"></path>
            <path d="M205.54,48.82c-3.35,3.35-7.01,3.26-9.69-.11,2.82-3.5,6.49-3.49,9.69.11Z" class="cls-1"></path>
            <path d="M51.05,109.82c4.44-1.51,7.1.02,8.38,4.7-3.66,1.96-7.43-.11-8.38-4.7Z" class="cls-1"></path>
            <path d="M53.36,96.44c-4.78.7-7.52-3.54-6.61-7.05,4.3-.3,6.99,2.5,6.61,7.05Z" class="cls-1"></path>
            <path d="M154.06,111.87c-3.67,2.9-6.81,2.37-9.6-1.51,2.96-3.04,6.86-2.46,9.6,1.51Z" class="cls-1"></path>
            <path d="M217.8,95.58c4.44-.73,7.49,2.41,7.02,6.57-4.45.56-7.43-2.23-7.02-6.57Z" class="cls-1"></path>
            <path d="M59.43,131.61c-1.84-4.48-.69-7.34,3.54-9.06,2.38,3.66.85,7.71-3.54,9.06Z" class="cls-1"></path>
            <path d="M169.27,93.24c-2.98,3.58-6.37,3.69-9.87.41,2.85-3.56,6.1-3.73,9.87-.41Z" class="cls-1"></path>
            <path d="M193.39,112.65c4.89.98,6.76,3.73,5.6,8.07-4.71-.69-6.7-3.48-5.6-8.07Z" class="cls-1"></path>
            <path d="M76.04,121.31c-2.11,4.17-5.11,5.07-9.29,2.87.83-3.94,4.98-5.28,9.29-2.87Z" class="cls-1"></path>
            <path d="M19.39,66.55c-2.67-3.52-1.66-7.45,2.39-9.33,2.71,3.51,1.73,7.33-2.39,9.33Z" class="cls-1"></path>
            <path d="M226.81,84.59c-3.29,3.6-6.48,3.65-9.93.27,3.22-3.57,6-3.68,9.93-.27Z" class="cls-1"></path>
            <path d="M90.61,133.64c-4.37-1.47-5.85-5.02-3.86-9,4.41,1.41,5.74,4.42,3.86,9Z" class="cls-1"></path>
            <path d="M77.58,36.48c.22,3.67-3.18,7.36-7.83,5.86.76-4.79,3.54-6.87,7.83-5.86Z" class="cls-1"></path>
            <path d="M159.65,85.68c-2.51-4.21-1.8-7.06,2.24-9.5,2.96,3.06,2.04,7.11-2.24,9.5Z" class="cls-1"></path>
            <path d="M141.07,37.83c-2.77,3.6-6.76,3.79-9.65.44,2.99-3.67,6.45-3.83,9.65-.44Z" class="cls-1"></path>
            <path d="M48.54,36.49c-4.45-.71-6.46-4.17-4.81-8.3,4.37.66,6.42,4.2,4.81,8.3Z" class="cls-1"></path>
            <path d="M181.27,80.52c-3.5-2.56-3.23-7.11.07-9.68,3.55,2.43,3.52,6.3-.07,9.68Z" class="cls-1"></path>
            <path d="M120.15,58.54c-3.06,3.54-6.5,3.58-9.82.2,2.78-3.49,6.14-3.6,9.82-.2Z" class="cls-1"></path>
            <path d="M72.05,48.97c.49-4.84,3.57-7.14,7.73-5.9-.41,4.57-3.1,6.68-7.73,5.9Z" class="cls-1"></path>
            <path d="M154.46,30.98c-.31-4.68,1.97-7.03,6.66-7.01.8,4.27-1.76,7.01-6.66,7.01Z" class="cls-1"></path>
            <path d="M4.04,149.24c-1.67-4.3-.07-7.4,4.33-8.6,2.02,3.85.27,7.41-4.33,8.6Z" class="cls-1"></path>
            <path d="M38.5,105.28c-4.69-.61-6.56-3.26-5.62-7.81,4.25-.08,6.7,3.25,5.62,7.81Z" class="cls-1"></path>
            <path d="M8.86,123.2c4.57-.61,7.22,1.64,7.43,6.21-4.34.97-7.32-1.47-7.43-6.21Z" class="cls-1"></path>
            <path d="M170.53,46.07c3.75,2.88,4.04,6.33.92,9.8-3.66-2.63-4.01-5.94-.92-9.8Z" class="cls-1"></path>
            <path d="M47.04,97.23c-3.66,2.96-6.99,2.5-9.57-1.25,2.59-3.18,6.7-2.7,9.57,1.25Z" class="cls-1"></path>
            <path d="M166.3,117.4c2.1,4.14.84,7.29-3.49,9.05-2.44-3.33-1.08-6.93,3.49-9.05Z" class="cls-1"></path>
            <path d="M108.7,87.55c.07,4.82-2.22,7.05-6.9,6.9-.58-4.37,2.12-7.13,6.9-6.9Z" class="cls-1"></path>
            <path d="M192.27,37.71c-2.34-4.22-.96-7.98,3.22-9.15,2.12,4.1,1.12,7.04-3.22,9.15Z" class="cls-1"></path>
            <path d="M93.94,26.11c-3.75,2.72-7.07,2.02-9.51-1.99,3.24-2.95,7.15-2.13,9.51,1.99Z" class="cls-1"></path>
            <path d="M140.8,20.28c-2.01-4.14-.15-7.83,3.82-8.83,2.19,3.76.61,7.51-3.82,8.83Z" class="cls-1"></path>
            <path d="M153.02,38.17c-.25,4.67-2.77,6.71-7.52,6.19-.11-4.44,2.88-6.96,7.52-6.19Z" class="cls-1"></path>
            <path d="M174.17,73.36c-3.3,3.34-6.39,3.26-9.76-.19,2.36-3.45,6.36-3.42,9.76.19Z" class="cls-1"></path>
            <path d="M140.19,103.82c-3.79-2.85-4.18-6.43-1.16-9.6,3.78,2.09,4.3,6.03,1.16,9.6Z" class="cls-1"></path>
            <path d="M107.92,78.33c.64,4.43-2.21,7.25-6.81,6.87-.38-4.39,1.87-6.71,6.81-6.87Z" class="cls-1"></path>
            <path d="M130.44,42.37c4.72-.84,7.46,1.14,7.85,5.55-4.16,1.39-7.41-.85-7.85-5.55Z" class="cls-1"></path>
            <path d="M144.64,90.52c4.35,2.01,5.47,5.15,3.37,9.16-4.3-1.41-5.59-4.8-3.37-9.16Z" class="cls-1"></path>
            <path d="M27.45,62.08c2.85,3.49,1.31,8.19-2.52,9.34-2.5-3.84-1.59-7.2,2.52-9.34Z" class="cls-1"></path>
            <path d="M197.58,83.96c-2.83,3.5-6.48,3.46-9.65-.11,2.91-3.47,6.64-3.43,9.65.11Z" class="cls-1"></path>
            <path d="M155.55,45.5c4.54,1.55,5.93,4.72,4.04,8.94-4.39-1.36-5.86-4.52-4.04-8.94Z" class="cls-1"></path>
            <path d="M193.01,104.14c4.63.26,6.69,2.86,6.1,7.52-4.39.15-6.84-2.82-6.1-7.52Z" class="cls-1"></path>
            <path d="M181.26,65.02c-3.76-3.22-4.02-6.56-.85-9.76,3.72,2.62,4.06,6.04.85,9.76Z" class="cls-1"></path>
            <path d="M105.48,38.08c-1.42-4.48.27-7.41,4.73-8.41,1.83,3.96,0,7.27-4.73,8.41Z" class="cls-1"></path>
            <path d="M51.41,41.78c1.32,4.51-.43,7.39-4.91,8.29-1.78-3.84.33-7.5,4.91-8.29Z" class="cls-1"></path>
            <path d="M159.22,14.46c1.94,4.4.85,7.06-3.58,8.95-2.35-3.65-.98-7.19,3.58-8.95Z" class="cls-1"></path>
            <path d="M130.59,27.84c2.79,3.47,2.07,6.91-1.98,9.47-3.35-3.7-1.39-8.19,1.98-9.47Z" class="cls-1"></path>
            <path d="M42.76,52.71c-1.94,4.35-4.96,5.45-9.15,3.43,1.11-4.14,4.73-5.54,9.15-3.43Z" class="cls-1"></path>
            <path d="M68.94,139.4c-4.23,1.69-6.9.38-8.57-4.19,3.53-2.34,7.57-.36,8.57,4.19Z" class="cls-1"></path>
            <path d="M108.31,20.85c4.74.16,6.8,2.34,6.64,7.05-4.38.6-7.48-2.69-6.64-7.05Z" class="cls-1"></path>
            <path d="M36.47,124.12c-4.72-.82-6.62-3.84-5.31-8.23,4.56.7,6.48,3.61,5.31,8.23Z" class="cls-1"></path>
            <path d="M103.26,105.66c-2.56-3.83-1.55-7.54,2.56-9.32,2.64,3.68,1.7,7.12-2.56,9.32Z" class="cls-1"></path>
            <path d="M32.5,109.2c3.45-2.95,6.82-2.47,9.62,1.37-2.95,3.18-7.96,2.27-9.62-1.37Z" class="cls-1"></path>
            <path d="M129.48,51.16c4.33-1.38,7.69.91,7.98,5.31-4.1,1.36-6.84-.43-7.98-5.31Z" class="cls-1"></path>
            <path d="M156.79,81.99c-2.48,3.92-5.84,4.66-9.4,2.07,2.13-4.16,6.51-5.13,9.4-2.07Z" class="cls-1"></path>
            <path d="M184.6,69.17c4.86.68,6.93,3.37,5.97,7.61-4.41.07-6.88-3.02-5.97-7.61Z" class="cls-1"></path>
            <path d="M194.1,64.48c3.87,2.72,3.78,6.84.84,9.64-3.73-2.25-4.1-6.43-.84-9.64Z" class="cls-1"></path>
            <path d="M126.42,77.3c-1.29,4.64-4.38,6.22-8.69,4.59,1.1-4.45,4.19-6.11,8.69-4.59Z" class="cls-1"></path>
            <path d="M38.98,37.03c-4.57-1.91-5.68-4.51-3.93-8.97,4.33,1.17,5.96,4.76,3.93,8.97Z" class="cls-1"></path>
            <path d="M59.47,148.98c1.18,4.16-1.08,7.11-5.74,7.48-1.72-3.16,1.44-7.93,5.74-7.48Z" class="cls-1"></path>
            <path d="M168.2,55.51c2.27,3.7.82,7.27-3.66,8.96-2.13-3.94-.77-7.29,3.66-8.96Z" class="cls-1"></path>
            <path d="M23.51,84.92c4.61.79,6.34,3.55,5.29,8.17-4.22-.12-6.35-3.35-5.29-8.17Z" class="cls-1"></path>
            <path d="M50.57,33.19c2.44-3.9,5.63-4.44,9.61-1.62-1.35,3.53-6.24,4.81-9.61,1.62Z" class="cls-1"></path>
            <path d="M126.65,40.92c2.76,3.86,2.09,7.16-1.83,9.52-3.01-2.91-2.3-6.84,1.83-9.52Z" class="cls-1"></path>
            <path d="M184.43,53.32c4.37-.58,7.03,1.91,6.97,6.51-4.21.97-7.2-1.82-6.97-6.51Z" class="cls-1"></path>
            <path d="M208.22,90.8c4.89-.11,7.09,2.02,6.99,6.65-4.48.54-7.36-2.14-6.99-6.65Z" class="cls-1"></path>
            <path d="M15.13,97.48c-3.84.71-7.49-2.02-6.97-6.68,4.36-.62,7.1,2,6.97,6.68Z" class="cls-1"></path>
          </g>
          <path d="M215.34,85.13c-.2.09-.38.21-.59.25-4.28.85-7.68,3.13-9.91,6.81-4.06,6.7-10.22,10.21-17.54,12.07-2.74.69-5.53,1.11-8.3,1.67-4.73.96-8.85,2.77-11.85,6.9-2.61,3.59-6.51,5.62-10.53,7.37-3.91,1.69-7.99,3.13-11.61,5.32-6.46,3.9-9.94,9.91-9.62,17.51.52,12.13,3.89,23.82,5.3,35.82,1.08,9.19.62,18.55-1.33,27.59-2.02,9.32-3.41,17.68.65,26.83-9.25,3.25-32.32-2.37-32.32-2.37-.33-24.33,9.23-22.07,14.95-45.5,5.09-20.84-3.49-35.4-5.45-38.36-2.35-2.87-5.38-5.16-9.19-6.65-3.07-1.21-6.6-1.34-9.94-1.77-3.93-.5-7.96-.44-11.81-1.27-5.64-1.21-10.42.19-14.87,3.51-.46.34-.92.67-1.4.99-.08.05-.26-.06-.7-.18,3.76-3.81,7.7-6.86,13.18-7.09,1.37-.06,2.74.06,4.11.05,3.89-.04,7.79-.17,11.68-.15,3.66.01,7.32.18,11.16.28-1.04-.81-2.05-1.74-3.2-2.46-6.55-4.12-12.98-8.44-19.74-12.18-6.14-3.38-12.94-3.28-19.4-1.04-5.98,2.08-11.76,4.81-17.46,7.59-4.76,2.33-9.59,3.31-14.7,1.92-6.54-1.77-12.11.43-17.36,3.95-2.56,1.72-4.91,3.73-7.53,5.73.06-.35.02-.65.16-.79,4.33-4.63,8.96-8.93,15.19-10.79,2.58-.77,5.54-1.46,8.07-.95,6.68,1.36,12.19-.9,17.65-4.18,5.76-3.46,11.47-7.07,18.16-8.56,2.11-.48,4.26-.76,6.57-1.17-1.51-2.12-3.09-4.06-4.37-6.17-3.28-5.44-6.27-11.06-9.7-16.41-3.34-5.22-5.96-6.04-11.71-3.61-3.21,1.36-6.27,3.3-9.07,5.41-7.34,5.55-15.67,8.08-24.77,8.7.4-.15.78-.37,1.2-.45,8.53-1.56,16.03-5.15,22.45-11.02,2.27-2.08,4.8-3.89,7.35-5.94-12.04-1.58-23.34-4.8-31.51-14.55.07-.21.14-.41.21-.63.48.13,1.1.12,1.42.42,8.89,8.05,19.55,10.95,31.22,10.3,9.15-.51,15.17,4.03,19.97,11.07,3.13,4.59,6.14,9.27,9.39,13.79,4.06,5.65,10.13,8.62,16.36,11.89-.71-2.79-1.32-5.27-1.98-7.73-.08-.31-.39-.6-.67-.81-6.01-4.38-8.4-10.75-8.65-17.71-.33-8.94-5.22-13.81-12.89-16.84-.19-.07-.36-.21-.53-.31.08-.18.15-.35.23-.53,2.2.94,4.46,1.75,6.58,2.83,5.24,2.66,8,7.07,8.83,12.83.65,4.49,2.04,8.72,4.82,12.4.3.4.62.79.97,1.17.13.15.35.23,1.05.66.28-7.95.81-15.56.72-23.16-.05-4.3-3.1-7.16-6.62-9.36-2.89-1.8-5.6-4.08-8.74-5.2-3.8-1.37-7.94-2.22-11.98-2.46-11.2-.65-19.73-5.81-26.36-14.71,8.65,10.06,19.73,13.5,32.59,11.99-6.11-10.21-7.28-22.37-12.24-33.19.22-.13.44-.25.67-.36.45.7,1.02,1.35,1.33,2.11,2.42,5.95,4.74,11.95,7.22,17.89,1.83,4.39,3.27,9.18,7.13,12.22,3.25,2.56,7.01,4.55,10.69,6.5,3.8,2.01,7.39,4.19,9.76,7.71,1.86-2.21,3.8-4.25,5.45-6.51,4.07-5.57,4.34-11.74,1.85-17.91-1.99-4.94-4.74-9.58-6.84-14.49-1.44-3.39-1.88-7.03-.39-10.68-.5,4.48.61,8.58,2.82,12.4,1.48,2.56,3.1,5.04,4.63,7.58.84,1.4,1.64,2.83,2.48,4.29,3.24-5.81,6.67-11.44,9.52-17.35,1.21-2.5,1.22-5.58,1.81-8.61.62,4.98-.28,9.55-2.18,13.93-.74,1.71-1.82,3.28-2.83,4.85-3.14,4.92-4.49,10.34-4.23,16.1.24,5.3-1.03,10-4.53,14.04-2.97,3.44-4.31,7.46-4.35,11.97-.07,6.57-.3,13.15-.15,19.72.13,6.07,2.32,11.51,6.07,16.34.67-3.45.81-7,2.09-10.08,1.97-4.72,2.84-9.55,3.58-14.56,1.16-7.8,4.31-14.82,9.94-20.55.22-.23.49-.42.91-.53-5.24,6.95-7.51,14.79-7.62,23.28,3.73-2.54,7.21-5.37,11.09-7.44,5.02-2.67,8.44-6.65,11.29-11.35,1.5-2.48,2.33-5.13,2.18-8.03-.39-7.86.62-15.54,2.51-23.16,1.82-7.33.91-14.51-2.02-21.44-.14-.33-.26-.66-.37-.99-.02-.05.05-.12.3-.61.89,1.81,1.78,3.33,2.42,4.95,2.81,7.23,2.71,14.61,1.68,22.21-.73,5.32-.86,10.81-.52,16.18.31,4.96.21,9.65-2.4,14.11,7.43-.89,13.66-5.6,16.23-12.22,2.35-6.06,4.43-12.24,7.01-18.19,2.49-5.74,6.33-10.52,11.98-13.56.89-.48,1.9-.74,3.1-.66-.2.24-.36.56-.61.68-6.48,3.14-10.23,8.64-12.53,15.14-2.32,6.53-4.18,13.21-6.4,20.35,5.13-2.22,8.7-5.3,11.55-9.47,5.33-7.77,13.04-11.32,22.29-11.85.11,0,.23.13.14.08-3.06,1.05-6.36,1.93-9.43,3.31-4.95,2.22-8.88,5.86-11.39,10.62-2.63,4.98-6.59,8.31-11.36,10.93-6.01,3.29-12.03,6.55-18.02,9.87-7.39,4.1-14.91,7.99-21.17,13.83-9.52,8.9-8.91,20.6-4.06,30.47.57,1.16,1.9,1.94,2.84,2.93,2.01,2.13,3.99,4.3,5.82,6.27,1.96-3.41,4.09-6.75,5.83-10.28.87-1.77,1.02-3.89,1.53-5.84,2.06-7.91,6.68-13.98,13.29-18.67,2.12-1.5,4.13-3.16,6.12-4.83,2.99-2.5,5.24-5.53,6.19-9.75.37,2.3-.47,5.29-2.57,7.71-2.55,2.94-5.25,5.78-8.16,8.35-5.12,4.52-9.12,9.65-10.51,16.5-.04.19-.03.39-.02.25,6.04-2.29,12.12-4.69,18.27-6.9,4.82-1.74,7.97-5.04,9.93-9.66,1.33-3.13,2.62-6.28,4.09-9.34,3.85-8.02,10.39-12.95,18.59-15.93,2.24-.82,4.47-1.66,6.73-2.46,5.38-1.92,8.33-5.98,9.94-11.23.14-.47.27-.95.41-1.42.18,0,.37,0,.55-.01.01.64.15,1.3.03,1.91-1.42,7.36-6.26,11.56-12.93,14.21-6.5,2.59-12.87,5.61-16.61,11.9-2.26,3.8-3.78,8.05-5.63,12.1.18.21.36.42.54.62,7.39-1.63,14.86-3.02,22.15-5.01,3.88-1.06,6.83-3.93,9.19-7.28,2.42-3.44,5.73-5.66,9.82-6.68.67-.17,1.37-.24,2.19.09Z" class="cls-1"></path>
        </g>
      </g>
    </g>
  </g>
</svg>