<svg viewBox="0 0 172.67 193.03" xmlns="http://www.w3.org/2000/svg" data-name="Layer 2" id="Layer_2">
  <defs>
    <style>
      .cls-1 {
        fill: #235a49;
      }
    </style>
  </defs>
  <g data-name="Layer 1" id="Layer_1-2">
    <g>
      <path d="M136.13,118.71s-3.41-3.23-3.41-5.81,2.39-6.14,4.44-8.4c0,0,6.49-1.62,4.44-8.07-2.05-6.46-.69-3.55-2.05-6.46-1.25-2.66-28.27-6.68-57.97-2.13-5.93.91-9.48,6.91-6.9,12.05.51,1,1.18,1.83,2.07,2.35,0,0,6.48,4.52,6.48,9.69,0,0,1.71,2.58-7.51,9.04,0,0-34.47,27.77,2.05,50.71,36.52,22.93,67.92-7.11,67.92-7.11,0,0,18.77-23.58-9.56-45.86ZM71.91,151.86c22.55,5.49,28.51,23.1,28.51,23.1-19.84-2.26-28.51-23.1-28.51-23.1ZM107.09,175.96s-8.95-16.44,2.89-35.41c0,0,9.45,20.54-2.89,35.41ZM115.57,174.96s5.96-17.61,28.51-23.1c0,0-8.67,20.85-28.51,23.1Z" class="cls-1"></path>
      <path d="M171.95,166.43s-93.14,24.47-171.95,5.32v21.28s158.34-11.7,172.67-3.19l-.72-23.41Z" class="cls-1"></path>
      <path d="M22.49.76s25.86,98.79,5.62,182.39h22.49S38.23,15.2,47.22,0l-24.74.76Z" class="cls-1"></path>
      <path d="M92.72,24.03s21.38,60.67,4.65,112.01h18.6s-10.23-103.14-2.79-112.47l-20.45.47Z" class="cls-1"></path>
      <path d="M69.25,59.72c-20.25,0-36.41-2.99-37.51-3.19l.76-3.61c.44.08,44.08,8.14,77.72-2.23l1.2,3.5c-13.74,4.23-28.85,5.53-42.18,5.53Z" class="cls-1"></path>
      <path d="M71.8,110.95c-19.01,0-34.18-2.8-35.21-3l.72-3.39c.41.08,41.39,7.64,72.96-2.09l1.13,3.29c-12.9,3.97-27.08,5.19-39.6,5.19Z" class="cls-1"></path>
    </g>
  </g>
</svg>