<svg viewBox="0 0 307.25 161.11" xmlns="http://www.w3.org/2000/svg" data-name="Layer 2" id="Layer_2">
  <defs>
    <style>
      .cls-1 {
        fill: #235a49;
      }
    </style>
  </defs>
  <g data-name="Layer 1" id="Layer_1-2">
    <g>
      <path d="M301.7,24.74c-3.45,11.78-3.78,26.89-3,40.54-11.33-12.97-28-21.15-46.6-21.15-34.18,0-61.89,27.71-61.89,61.89,0,5.47.72,10.79,2.05,15.85h-113.69c-2.01-14.97-14.84-26.52-30.36-26.52s-28.37,11.55-30.38,26.52H0c5.1-16.44,8.43-29.42,10.55-39.65.88.14,1.83.19,2.82.19,4.48,0,17.5-1.11,17.5-2.69s-13.03-3.04-17.5-3.04c-.6,0-1.19.02-1.75.06.14-.78.27-1.56.41-2.3.43.02.9.04,1.34.04,4.48,0,17.01-1.26,17.01-2.84s-12.53-2.88-17.01-2.88c-.16,0-.31,0-.47.02.12-.78.21-1.52.31-2.24h.16c4.48,0,16.38-1.15,16.38-2.73s-11.69-2.92-15.98-3c.82-10.83-.7-14.04-.7-14.04,18.07-.21,35.83-.55,51.82-.92-.12.62-.19.97-.19.97h7.63s0-.41.02-1.13c33.22-.8,57.13-1.67,57.13-1.67v68.2h38.58c2.75-22.74-6.89-53.05-6.89-53.05h27.55c4.83-13.09-4.13-24.79-4.13-24.79,37.88,4.13,125.37-37.9,117.09-9.66Z" class="cls-1"></path>
      <path d="M72.35,46.84h-7.63s.08-.35.19-.97c2.53-.04,5.02-.1,7.46-.16-.02.72-.02,1.13-.02,1.13Z" class="cls-1"></path>
      <path d="M68.13,129.72h4.59c-.67,4.47-2.52,8.55-5.26,11.91l-2.83-3.1-5.22,4.76,2.87,3.14c-3.04,2.12-6.6,3.56-10.42,4.11v-4.34h-7.28v4.34c-4.19-.61-8.05-2.28-11.26-4.72l2.33-2.12-4.91-5.39-2.54,2.31c-2.29-3.15-3.88-6.86-4.47-10.9h3.69v-7.06h-3.75c.02-.21.04-.4.08-.59.65-4.05,2.28-7.8,4.65-10.96l2.29,2.5,5.22-4.76-2.5-2.73c3.21-2.41,7.04-4.03,11.18-4.65v3.25h7.28v-3.25c3.82.55,7.38,1.99,10.42,4.11l-2.62,2.39,4.91,5.39,3.06-2.79c2.6,3.27,4.38,7.19,5.07,11.49.04.19.06.38.08.59h-4.65v7.06Z" class="cls-1"></path>
      <path d="M72.36,45.71c-.02.72-.02,1.13-.02,1.13h-7.63s.08-.35.19-.97c1.17-6.15,7.11-39.2-.68-35.29-8.59,4.28-13.83,10.5-13.83,10.5l-4.77-10.98s26.23-16.69,26.72-7.15c.41,8.51.1,36.75.02,42.76Z" class="cls-1"></path>
      <path d="M296.85,114.51h10.27c-1.5,10.01-5.65,19.13-11.77,26.66l-6.33-6.93-11.68,10.66,6.42,7.02c-6.8,4.75-14.76,7.96-23.32,9.2v-9.71h-16.3v9.71c-9.37-1.37-18.02-5.09-25.2-10.57l5.22-4.75-11-12.07-5.69,5.18c-5.13-7.06-8.69-15.36-10.01-24.39h8.26v-15.79h-8.39c.04-.47.09-.9.17-1.33,1.46-9.07,5.09-17.46,10.4-24.52l5.13,5.61,11.68-10.66-5.61-6.12c7.19-5.39,15.75-9.03,25.03-10.4v7.27h16.3v-7.27c8.56,1.24,16.52,4.45,23.32,9.2l-5.86,5.35,11,12.07,6.85-6.25c5.82,7.32,9.8,16.09,11.34,25.72.09.43.13.86.17,1.33h-10.4v15.79Z" class="cls-1"></path>
    </g>
  </g>
</svg>