<svg width="791" height="779" viewBox="0 0 791 779" fill="none" xmlns="http://www.w3.org/2000/svg">
<g filter="url(#filter0_f_241_2851)">
<path d="M411.006 258L526.006 240L589.006 200.5L617.006 282L471.006 378.5V326.5L411.006 258Z" fill="#8F69E0"/>
<path d="M381.006 458L496.006 440L559.006 400.5L587.006 482L441.006 578.5V526.5L381.006 458Z" fill="#8F69E0"/>
<path d="M288.372 287.921L350.231 386.524L411.36 428.862L347.488 486.711L201.264 390.55L249.057 370.059L288.372 287.921Z" fill="#FB9144" stroke="black"/>
</g>
<rect x="145.5" y="200.5" width="463" height="314" rx="15.5" fill="#2A252F"/>
<rect x="145.5" y="200.5" width="463" height="314" rx="15.5" stroke="#433B4A"/>
<path d="M176.166 276.108C175.198 276.108 174.45 275.904 173.922 275.496C173.394 275.08 173.13 274.5 173.13 273.756C173.13 273.172 173.31 272.688 173.67 272.304C174.03 271.912 174.506 271.676 175.098 271.596V271.776C174.562 271.664 174.134 271.42 173.814 271.044C173.494 270.66 173.334 270.208 173.334 269.688C173.334 268.976 173.586 268.424 174.09 268.032C174.594 267.632 175.286 267.432 176.166 267.432C177.054 267.432 177.75 267.632 178.254 268.032C178.758 268.424 179.01 268.976 179.01 269.688C179.01 270.208 178.858 270.66 178.554 271.044C178.258 271.428 177.842 271.668 177.306 271.764V271.596C177.89 271.676 178.354 271.912 178.698 272.304C179.042 272.688 179.214 273.172 179.214 273.756C179.214 274.5 178.95 275.08 178.422 275.496C177.894 275.904 177.142 276.108 176.166 276.108ZM176.166 275.292C176.87 275.292 177.394 275.16 177.738 274.896C178.09 274.632 178.266 274.232 178.266 273.696C178.266 273.168 178.09 272.776 177.738 272.52C177.394 272.256 176.87 272.124 176.166 272.124C175.462 272.124 174.934 272.256 174.582 272.52C174.238 272.776 174.066 273.168 174.066 273.696C174.066 274.232 174.242 274.632 174.594 274.896C174.946 275.16 175.47 275.292 176.166 275.292ZM176.166 271.308C176.774 271.308 177.238 271.172 177.558 270.9C177.886 270.628 178.05 270.252 178.05 269.772C178.05 269.292 177.886 268.92 177.558 268.656C177.238 268.384 176.774 268.248 176.166 268.248C175.558 268.248 175.09 268.384 174.762 268.656C174.442 268.92 174.282 269.292 174.282 269.772C174.282 270.252 174.442 270.628 174.762 270.9C175.09 271.172 175.558 271.308 176.166 271.308ZM183.314 276H182.438L187.466 267.54H188.342L183.314 276ZM182.462 272.616C181.814 272.616 181.302 272.388 180.926 271.932C180.558 271.468 180.374 270.832 180.374 270.024C180.374 269.208 180.562 268.576 180.938 268.128C181.314 267.672 181.822 267.444 182.462 267.444C183.11 267.444 183.618 267.672 183.986 268.128C184.362 268.576 184.55 269.208 184.55 270.024C184.55 270.832 184.362 271.468 183.986 271.932C183.618 272.388 183.11 272.616 182.462 272.616ZM182.462 271.92C182.854 271.92 183.158 271.764 183.374 271.452C183.598 271.132 183.71 270.656 183.71 270.024C183.71 269.384 183.598 268.908 183.374 268.596C183.158 268.284 182.854 268.128 182.462 268.128C182.078 268.128 181.774 268.284 181.55 268.596C181.334 268.908 181.226 269.384 181.226 270.024C181.226 270.664 181.334 271.14 181.55 271.452C181.774 271.764 182.078 271.92 182.462 271.92ZM188.318 276.108C187.662 276.108 187.146 275.88 186.77 275.424C186.402 274.968 186.218 274.328 186.218 273.504C186.218 272.688 186.406 272.056 186.782 271.608C187.158 271.16 187.67 270.936 188.318 270.936C188.966 270.936 189.474 271.164 189.842 271.62C190.218 272.068 190.406 272.696 190.406 273.504C190.406 274.32 190.218 274.96 189.842 275.424C189.474 275.88 188.966 276.108 188.318 276.108ZM188.318 275.412C188.702 275.412 189.002 275.256 189.218 274.944C189.442 274.624 189.554 274.144 189.554 273.504C189.554 272.872 189.442 272.4 189.218 272.088C189.002 271.776 188.702 271.62 188.318 271.62C187.926 271.62 187.622 271.776 187.406 272.088C187.19 272.4 187.082 272.872 187.082 273.504C187.082 274.152 187.19 274.632 187.406 274.944C187.622 275.256 187.926 275.412 188.318 275.412Z" fill="#58545C"/>
<rect x="199" y="270.5" width="386" height="1" fill="#3B363F"/>
<path d="M176.442 325.108C175.418 325.108 174.626 324.748 174.066 324.028C173.514 323.3 173.238 322.284 173.238 320.98C173.238 320.004 173.378 319.18 173.658 318.508C173.938 317.828 174.338 317.312 174.858 316.96C175.378 316.608 176.006 316.432 176.742 316.432C177.182 316.432 177.626 316.524 178.074 316.708C178.522 316.884 178.89 317.132 179.178 317.452L178.818 318.22C178.514 317.908 178.182 317.68 177.822 317.536C177.462 317.384 177.098 317.308 176.73 317.308C175.914 317.308 175.286 317.6 174.846 318.184C174.414 318.76 174.198 319.628 174.198 320.788V321.904H174.09C174.146 321.448 174.282 321.056 174.498 320.728C174.722 320.392 175.014 320.136 175.374 319.96C175.734 319.784 176.134 319.696 176.574 319.696C177.086 319.696 177.538 319.808 177.93 320.032C178.322 320.256 178.63 320.572 178.854 320.98C179.078 321.38 179.19 321.84 179.19 322.36C179.19 322.888 179.074 323.36 178.842 323.776C178.61 324.192 178.286 324.52 177.87 324.76C177.454 324.992 176.978 325.108 176.442 325.108ZM176.37 324.268C176.738 324.268 177.062 324.192 177.342 324.04C177.63 323.88 177.85 323.66 178.002 323.38C178.162 323.092 178.242 322.764 178.242 322.396C178.242 322.028 178.162 321.704 178.002 321.424C177.85 321.144 177.63 320.924 177.342 320.764C177.062 320.604 176.738 320.524 176.37 320.524C176.002 320.524 175.678 320.604 175.398 320.764C175.118 320.924 174.898 321.144 174.738 321.424C174.586 321.704 174.51 322.028 174.51 322.396C174.51 322.764 174.586 323.092 174.738 323.38C174.898 323.66 175.118 323.88 175.398 324.04C175.678 324.192 176.002 324.268 176.37 324.268ZM183.314 325H182.438L187.466 316.54H188.342L183.314 325ZM182.462 321.616C181.814 321.616 181.302 321.388 180.926 320.932C180.558 320.468 180.374 319.832 180.374 319.024C180.374 318.208 180.562 317.576 180.938 317.128C181.314 316.672 181.822 316.444 182.462 316.444C183.11 316.444 183.618 316.672 183.986 317.128C184.362 317.576 184.55 318.208 184.55 319.024C184.55 319.832 184.362 320.468 183.986 320.932C183.618 321.388 183.11 321.616 182.462 321.616ZM182.462 320.92C182.854 320.92 183.158 320.764 183.374 320.452C183.598 320.132 183.71 319.656 183.71 319.024C183.71 318.384 183.598 317.908 183.374 317.596C183.158 317.284 182.854 317.128 182.462 317.128C182.078 317.128 181.774 317.284 181.55 317.596C181.334 317.908 181.226 318.384 181.226 319.024C181.226 319.664 181.334 320.14 181.55 320.452C181.774 320.764 182.078 320.92 182.462 320.92ZM188.318 325.108C187.662 325.108 187.146 324.88 186.77 324.424C186.402 323.968 186.218 323.328 186.218 322.504C186.218 321.688 186.406 321.056 186.782 320.608C187.158 320.16 187.67 319.936 188.318 319.936C188.966 319.936 189.474 320.164 189.842 320.62C190.218 321.068 190.406 321.696 190.406 322.504C190.406 323.32 190.218 323.96 189.842 324.424C189.474 324.88 188.966 325.108 188.318 325.108ZM188.318 324.412C188.702 324.412 189.002 324.256 189.218 323.944C189.442 323.624 189.554 323.144 189.554 322.504C189.554 321.872 189.442 321.4 189.218 321.088C189.002 320.776 188.702 320.62 188.318 320.62C187.926 320.62 187.622 320.776 187.406 321.088C187.19 321.4 187.082 321.872 187.082 322.504C187.082 323.152 187.19 323.632 187.406 323.944C187.622 324.256 187.926 324.412 188.318 324.412Z" fill="#58545C"/>
<rect x="199" y="319.5" width="386" height="1" fill="#3B363F"/>
<path d="M177.198 374V372.164H173.166V371.444L177.354 365.54H178.17V371.36H179.466V372.164H178.17V374H177.198ZM177.198 371.36V366.716H177.462L173.982 371.612V371.36H177.198ZM183.314 374H182.438L187.466 365.54H188.342L183.314 374ZM182.462 370.616C181.814 370.616 181.302 370.388 180.926 369.932C180.558 369.468 180.374 368.832 180.374 368.024C180.374 367.208 180.562 366.576 180.938 366.128C181.314 365.672 181.822 365.444 182.462 365.444C183.11 365.444 183.618 365.672 183.986 366.128C184.362 366.576 184.55 367.208 184.55 368.024C184.55 368.832 184.362 369.468 183.986 369.932C183.618 370.388 183.11 370.616 182.462 370.616ZM182.462 369.92C182.854 369.92 183.158 369.764 183.374 369.452C183.598 369.132 183.71 368.656 183.71 368.024C183.71 367.384 183.598 366.908 183.374 366.596C183.158 366.284 182.854 366.128 182.462 366.128C182.078 366.128 181.774 366.284 181.55 366.596C181.334 366.908 181.226 367.384 181.226 368.024C181.226 368.664 181.334 369.14 181.55 369.452C181.774 369.764 182.078 369.92 182.462 369.92ZM188.318 374.108C187.662 374.108 187.146 373.88 186.77 373.424C186.402 372.968 186.218 372.328 186.218 371.504C186.218 370.688 186.406 370.056 186.782 369.608C187.158 369.16 187.67 368.936 188.318 368.936C188.966 368.936 189.474 369.164 189.842 369.62C190.218 370.068 190.406 370.696 190.406 371.504C190.406 372.32 190.218 372.96 189.842 373.424C189.474 373.88 188.966 374.108 188.318 374.108ZM188.318 373.412C188.702 373.412 189.002 373.256 189.218 372.944C189.442 372.624 189.554 372.144 189.554 371.504C189.554 370.872 189.442 370.4 189.218 370.088C189.002 369.776 188.702 369.62 188.318 369.62C187.926 369.62 187.622 369.776 187.406 370.088C187.19 370.4 187.082 370.872 187.082 371.504C187.082 372.152 187.19 372.632 187.406 372.944C187.622 373.256 187.926 373.412 188.318 373.412Z" fill="#58545C"/>
<rect x="199" y="368.5" width="386" height="1" fill="#3B363F"/>
<path d="M173.598 423V422.256L176.598 419.124C176.99 418.716 177.282 418.328 177.474 417.96C177.674 417.584 177.774 417.196 177.774 416.796C177.774 416.308 177.622 415.94 177.318 415.692C177.014 415.436 176.574 415.308 175.998 415.308C175.55 415.308 175.134 415.388 174.75 415.548C174.374 415.7 174.01 415.944 173.658 416.28L173.298 415.5C173.618 415.18 174.026 414.924 174.522 414.732C175.018 414.532 175.542 414.432 176.094 414.432C176.95 414.432 177.61 414.632 178.074 415.032C178.538 415.424 178.77 415.984 178.77 416.712C178.77 417.248 178.638 417.76 178.374 418.248C178.118 418.728 177.742 419.224 177.246 419.736L174.594 422.424V422.148H179.13V423H173.598ZM183.314 423H182.438L187.466 414.54H188.342L183.314 423ZM182.462 419.616C181.814 419.616 181.302 419.388 180.926 418.932C180.558 418.468 180.374 417.832 180.374 417.024C180.374 416.208 180.562 415.576 180.938 415.128C181.314 414.672 181.822 414.444 182.462 414.444C183.11 414.444 183.618 414.672 183.986 415.128C184.362 415.576 184.55 416.208 184.55 417.024C184.55 417.832 184.362 418.468 183.986 418.932C183.618 419.388 183.11 419.616 182.462 419.616ZM182.462 418.92C182.854 418.92 183.158 418.764 183.374 418.452C183.598 418.132 183.71 417.656 183.71 417.024C183.71 416.384 183.598 415.908 183.374 415.596C183.158 415.284 182.854 415.128 182.462 415.128C182.078 415.128 181.774 415.284 181.55 415.596C181.334 415.908 181.226 416.384 181.226 417.024C181.226 417.664 181.334 418.14 181.55 418.452C181.774 418.764 182.078 418.92 182.462 418.92ZM188.318 423.108C187.662 423.108 187.146 422.88 186.77 422.424C186.402 421.968 186.218 421.328 186.218 420.504C186.218 419.688 186.406 419.056 186.782 418.608C187.158 418.16 187.67 417.936 188.318 417.936C188.966 417.936 189.474 418.164 189.842 418.62C190.218 419.068 190.406 419.696 190.406 420.504C190.406 421.32 190.218 421.96 189.842 422.424C189.474 422.88 188.966 423.108 188.318 423.108ZM188.318 422.412C188.702 422.412 189.002 422.256 189.218 421.944C189.442 421.624 189.554 421.144 189.554 420.504C189.554 419.872 189.442 419.4 189.218 419.088C189.002 418.776 188.702 418.62 188.318 418.62C187.926 418.62 187.622 418.776 187.406 419.088C187.19 419.4 187.082 419.872 187.082 420.504C187.082 421.152 187.19 421.632 187.406 421.944C187.622 422.256 187.926 422.412 188.318 422.412Z" fill="#58545C"/>
<rect x="199" y="417.5" width="386" height="1" fill="#3B363F"/>
<path d="M176.166 472.108C175.206 472.108 174.47 471.736 173.958 470.992C173.446 470.248 173.19 469.172 173.19 467.764C173.19 466.348 173.446 465.272 173.958 464.536C174.47 463.8 175.206 463.432 176.166 463.432C177.134 463.432 177.87 463.8 178.374 464.536C178.886 465.272 179.142 466.344 179.142 467.752C179.142 469.168 178.886 470.248 178.374 470.992C177.862 471.736 177.126 472.108 176.166 472.108ZM176.166 471.244C176.838 471.244 177.338 470.96 177.666 470.392C177.994 469.824 178.158 468.944 178.158 467.752C178.158 466.552 177.994 465.676 177.666 465.124C177.338 464.564 176.838 464.284 176.166 464.284C175.502 464.284 175.002 464.564 174.666 465.124C174.338 465.684 174.174 466.56 174.174 467.752C174.174 468.944 174.338 469.824 174.666 470.392C175.002 470.96 175.502 471.244 176.166 471.244ZM183.314 472H182.438L187.466 463.54H188.342L183.314 472ZM182.462 468.616C181.814 468.616 181.302 468.388 180.926 467.932C180.558 467.468 180.374 466.832 180.374 466.024C180.374 465.208 180.562 464.576 180.938 464.128C181.314 463.672 181.822 463.444 182.462 463.444C183.11 463.444 183.618 463.672 183.986 464.128C184.362 464.576 184.55 465.208 184.55 466.024C184.55 466.832 184.362 467.468 183.986 467.932C183.618 468.388 183.11 468.616 182.462 468.616ZM182.462 467.92C182.854 467.92 183.158 467.764 183.374 467.452C183.598 467.132 183.71 466.656 183.71 466.024C183.71 465.384 183.598 464.908 183.374 464.596C183.158 464.284 182.854 464.128 182.462 464.128C182.078 464.128 181.774 464.284 181.55 464.596C181.334 464.908 181.226 465.384 181.226 466.024C181.226 466.664 181.334 467.14 181.55 467.452C181.774 467.764 182.078 467.92 182.462 467.92ZM188.318 472.108C187.662 472.108 187.146 471.88 186.77 471.424C186.402 470.968 186.218 470.328 186.218 469.504C186.218 468.688 186.406 468.056 186.782 467.608C187.158 467.16 187.67 466.936 188.318 466.936C188.966 466.936 189.474 467.164 189.842 467.62C190.218 468.068 190.406 468.696 190.406 469.504C190.406 470.32 190.218 470.96 189.842 471.424C189.474 471.88 188.966 472.108 188.318 472.108ZM188.318 471.412C188.702 471.412 189.002 471.256 189.218 470.944C189.442 470.624 189.554 470.144 189.554 469.504C189.554 468.872 189.442 468.4 189.218 468.088C189.002 467.776 188.702 467.62 188.318 467.62C187.926 467.62 187.622 467.776 187.406 468.088C187.19 468.4 187.082 468.872 187.082 469.504C187.082 470.152 187.19 470.632 187.406 470.944C187.622 471.256 187.926 471.412 188.318 471.412Z" fill="#58545C"/>
<rect x="199" y="466.5" width="386" height="1" fill="#3B363F"/>
<path d="M199.068 495V486.54H199.932L203.328 494.208H202.98L206.376 486.54H207.24V495H206.328V487.824H206.688L203.484 495H202.824L199.608 487.824H199.968V495H199.068ZM211.541 495.108C211.005 495.108 210.537 494.984 210.137 494.736C209.737 494.48 209.425 494.12 209.201 493.656C208.985 493.192 208.877 492.636 208.877 491.988C208.877 491.332 208.985 490.772 209.201 490.308C209.425 489.844 209.737 489.488 210.137 489.24C210.537 488.992 211.005 488.868 211.541 488.868C212.085 488.868 212.553 489.008 212.945 489.288C213.345 489.56 213.609 489.932 213.737 490.404H213.593L213.725 488.976H214.661C214.637 489.208 214.613 489.444 214.589 489.684C214.573 489.916 214.565 490.144 214.565 490.368V495H213.593V493.584H213.725C213.597 494.056 213.333 494.428 212.933 494.7C212.533 494.972 212.069 495.108 211.541 495.108ZM211.733 494.316C212.309 494.316 212.765 494.12 213.101 493.728C213.437 493.328 213.605 492.748 213.605 491.988C213.605 491.22 213.437 490.64 213.101 490.248C212.765 489.848 212.309 489.648 211.733 489.648C211.165 489.648 210.709 489.848 210.365 490.248C210.029 490.64 209.861 491.22 209.861 491.988C209.861 492.748 210.029 493.328 210.365 493.728C210.709 494.12 211.165 494.316 211.733 494.316ZM216.146 497.724L215.918 496.92C216.294 496.832 216.606 496.728 216.854 496.608C217.11 496.496 217.322 496.344 217.49 496.152C217.658 495.96 217.802 495.72 217.922 495.432L218.234 494.724L218.21 495.132L215.582 488.976H216.638L218.81 494.268H218.498L220.646 488.976H221.666L218.882 495.504C218.722 495.888 218.546 496.208 218.354 496.464C218.162 496.728 217.954 496.94 217.73 497.1C217.514 497.268 217.274 497.4 217.01 497.496C216.746 497.592 216.458 497.668 216.146 497.724Z" fill="#58545C"/>
<path d="M242.948 497.232C242.82 497.232 242.672 497.224 242.504 497.208C242.344 497.2 242.18 497.176 242.012 497.136V496.308C242.164 496.34 242.304 496.364 242.432 496.38C242.568 496.404 242.688 496.416 242.792 496.416C243.16 496.416 243.436 496.3 243.62 496.068C243.804 495.844 243.896 495.484 243.896 494.988V486.54H244.892V495C244.892 495.48 244.82 495.888 244.676 496.224C244.54 496.56 244.328 496.812 244.04 496.98C243.76 497.148 243.396 497.232 242.948 497.232ZM249.021 495.108C248.309 495.108 247.769 494.912 247.401 494.52C247.041 494.128 246.861 493.528 246.861 492.72V488.976H247.833V492.696C247.833 493.248 247.945 493.656 248.169 493.92C248.393 494.176 248.741 494.304 249.213 494.304C249.741 494.304 250.165 494.132 250.485 493.788C250.805 493.444 250.965 492.984 250.965 492.408V488.976H251.937V495H250.989V493.644H251.145C250.977 494.108 250.705 494.468 250.329 494.724C249.961 494.98 249.525 495.108 249.021 495.108ZM253.823 495V490.368C253.823 490.144 253.811 489.916 253.787 489.684C253.771 489.444 253.751 489.208 253.727 488.976H254.663L254.783 490.296H254.639C254.815 489.832 255.095 489.48 255.479 489.24C255.871 488.992 256.323 488.868 256.835 488.868C257.547 488.868 258.083 489.06 258.443 489.444C258.811 489.82 258.995 490.416 258.995 491.232V495H258.023V491.292C258.023 490.724 257.907 490.312 257.675 490.056C257.451 489.792 257.099 489.66 256.619 489.66C256.059 489.66 255.615 489.832 255.287 490.176C254.959 490.52 254.795 490.98 254.795 491.556V495H253.823Z" fill="#58545C"/>
<path d="M282.948 497.232C282.82 497.232 282.672 497.224 282.504 497.208C282.344 497.2 282.18 497.176 282.012 497.136V496.308C282.164 496.34 282.304 496.364 282.432 496.38C282.568 496.404 282.688 496.416 282.792 496.416C283.16 496.416 283.436 496.3 283.62 496.068C283.804 495.844 283.896 495.484 283.896 494.988V486.54H284.892V495C284.892 495.48 284.82 495.888 284.676 496.224C284.54 496.56 284.328 496.812 284.04 496.98C283.76 497.148 283.396 497.232 282.948 497.232ZM289.021 495.108C288.309 495.108 287.769 494.912 287.401 494.52C287.041 494.128 286.861 493.528 286.861 492.72V488.976H287.833V492.696C287.833 493.248 287.945 493.656 288.169 493.92C288.393 494.176 288.741 494.304 289.213 494.304C289.741 494.304 290.165 494.132 290.485 493.788C290.805 493.444 290.965 492.984 290.965 492.408V488.976H291.937V495H290.989V493.644H291.145C290.977 494.108 290.705 494.468 290.329 494.724C289.961 494.98 289.525 495.108 289.021 495.108ZM293.823 495V486.168H294.795V495H293.823Z" fill="#58545C"/>
<path d="M320.216 495L323.948 486.54H324.812L328.604 495H327.572L326.516 492.588L326.96 492.84H321.788L322.268 492.588L321.236 495H320.216ZM324.368 487.68L322.424 492.24L322.136 492.024H326.6L326.384 492.24L324.392 487.68H324.368ZM331.896 495.108C331.184 495.108 330.644 494.912 330.276 494.52C329.916 494.128 329.736 493.528 329.736 492.72V488.976H330.708V492.696C330.708 493.248 330.82 493.656 331.044 493.92C331.268 494.176 331.616 494.304 332.088 494.304C332.616 494.304 333.04 494.132 333.36 493.788C333.68 493.444 333.84 492.984 333.84 492.408V488.976H334.812V495H333.864V493.644H334.02C333.852 494.108 333.58 494.468 333.204 494.724C332.836 494.98 332.4 495.108 331.896 495.108ZM339.35 497.676C338.83 497.676 338.35 497.612 337.91 497.484C337.47 497.356 337.074 497.16 336.722 496.896L337.01 496.164C337.258 496.34 337.502 496.48 337.742 496.584C337.982 496.688 338.23 496.764 338.486 496.812C338.742 496.868 339.014 496.896 339.302 496.896C339.894 496.896 340.342 496.74 340.646 496.428C340.95 496.116 341.102 495.672 341.102 495.096V493.332H341.222C341.094 493.804 340.83 494.18 340.43 494.46C340.03 494.732 339.562 494.868 339.026 494.868C338.474 494.868 337.994 494.748 337.586 494.508C337.186 494.26 336.874 493.912 336.65 493.464C336.434 493.008 336.326 492.472 336.326 491.856C336.326 491.248 336.434 490.72 336.65 490.272C336.874 489.824 337.186 489.48 337.586 489.24C337.994 488.992 338.474 488.868 339.026 488.868C339.57 488.868 340.038 489.004 340.43 489.276C340.83 489.548 341.094 489.924 341.222 490.404L341.102 490.284L341.21 488.976H342.158C342.126 489.208 342.102 489.444 342.086 489.684C342.07 489.916 342.062 490.144 342.062 490.368V494.964C342.062 495.86 341.83 496.536 341.366 496.992C340.91 497.448 340.238 497.676 339.35 497.676ZM339.206 494.076C339.79 494.076 340.25 493.884 340.586 493.5C340.922 493.108 341.09 492.56 341.09 491.856C341.09 491.152 340.922 490.608 340.586 490.224C340.25 489.84 339.79 489.648 339.206 489.648C338.63 489.648 338.17 489.84 337.826 490.224C337.482 490.608 337.31 491.152 337.31 491.856C337.31 492.56 337.482 493.108 337.826 493.5C338.17 493.884 338.63 494.076 339.206 494.076Z" fill="#58545C"/>
<path d="M363.816 495.108C363.136 495.108 362.528 495.02 361.992 494.844C361.456 494.668 360.988 494.416 360.588 494.088L360.948 493.296C361.228 493.504 361.508 493.68 361.788 493.824C362.076 493.96 362.384 494.064 362.712 494.136C363.04 494.2 363.408 494.232 363.816 494.232C364.528 494.232 365.056 494.1 365.4 493.836C365.744 493.572 365.916 493.22 365.916 492.78C365.916 492.404 365.796 492.116 365.556 491.916C365.316 491.716 364.896 491.556 364.296 491.436L363.036 491.184C362.26 491.024 361.68 490.764 361.296 490.404C360.92 490.044 360.732 489.556 360.732 488.94C360.732 488.436 360.86 487.996 361.116 487.62C361.38 487.244 361.748 486.952 362.22 486.744C362.692 486.536 363.24 486.432 363.864 486.432C364.464 486.432 365.012 486.524 365.508 486.708C366.004 486.884 366.428 487.144 366.78 487.488L366.432 488.256C366.056 487.92 365.66 487.68 365.244 487.536C364.836 487.384 364.372 487.308 363.852 487.308C363.196 487.308 362.676 487.452 362.292 487.74C361.916 488.02 361.728 488.404 361.728 488.892C361.728 489.284 361.848 489.592 362.088 489.816C362.328 490.032 362.724 490.196 363.276 490.308L364.548 490.56C365.364 490.728 365.964 490.98 366.348 491.316C366.732 491.652 366.924 492.124 366.924 492.732C366.924 493.196 366.796 493.608 366.54 493.968C366.292 494.328 365.936 494.608 365.472 494.808C365.008 495.008 364.456 495.108 363.816 495.108ZM371.101 495.108C370.157 495.108 369.413 494.836 368.869 494.292C368.325 493.74 368.053 492.976 368.053 492C368.053 491.368 368.173 490.82 368.413 490.356C368.653 489.884 368.989 489.52 369.421 489.264C369.853 489 370.349 488.868 370.909 488.868C371.461 488.868 371.925 488.984 372.301 489.216C372.677 489.448 372.965 489.78 373.165 490.212C373.365 490.636 373.465 491.14 373.465 491.724V492.084H368.797V491.472H372.829L372.625 491.628C372.625 490.988 372.481 490.488 372.193 490.128C371.905 489.768 371.477 489.588 370.909 489.588C370.309 489.588 369.841 489.8 369.505 490.224C369.169 490.64 369.001 491.204 369.001 491.916V492.024C369.001 492.776 369.185 493.348 369.553 493.74C369.929 494.124 370.453 494.316 371.125 494.316C371.485 494.316 371.821 494.264 372.133 494.16C372.453 494.048 372.757 493.868 373.045 493.62L373.381 494.304C373.117 494.56 372.781 494.76 372.373 494.904C371.973 495.04 371.549 495.108 371.101 495.108ZM374.952 497.592V490.368C374.952 490.144 374.94 489.916 374.916 489.684C374.9 489.444 374.88 489.208 374.856 488.976H375.792L375.924 490.404H375.78C375.908 489.932 376.168 489.56 376.56 489.288C376.952 489.008 377.42 488.868 377.964 488.868C378.508 488.868 378.976 488.992 379.368 489.24C379.768 489.488 380.08 489.844 380.304 490.308C380.528 490.772 380.64 491.332 380.64 491.988C380.64 492.636 380.528 493.192 380.304 493.656C380.088 494.12 379.78 494.48 379.38 494.736C378.98 494.984 378.508 495.108 377.964 495.108C377.428 495.108 376.964 494.972 376.572 494.7C376.18 494.428 375.92 494.056 375.792 493.584H375.924V497.592H374.952ZM377.772 494.316C378.348 494.316 378.804 494.12 379.14 493.728C379.484 493.328 379.656 492.748 379.656 491.988C379.656 491.22 379.484 490.64 379.14 490.248C378.804 489.848 378.348 489.648 377.772 489.648C377.204 489.648 376.748 489.848 376.404 490.248C376.068 490.64 375.9 491.22 375.9 491.988C375.9 492.748 376.068 493.328 376.404 493.728C376.748 494.12 377.204 494.316 377.772 494.316Z" fill="#58545C"/>
<path d="M399.744 490.764C399.744 489.868 399.896 489.1 400.2 488.46C400.512 487.812 400.956 487.312 401.532 486.96C402.116 486.608 402.816 486.432 403.632 486.432C404.424 486.432 405.112 486.608 405.696 486.96C406.28 487.312 406.728 487.812 407.04 488.46C407.36 489.1 407.52 489.864 407.52 490.752C407.52 491.648 407.36 492.42 407.04 493.068C406.72 493.716 406.268 494.22 405.684 494.58C405.108 494.932 404.424 495.108 403.632 495.108C402.816 495.108 402.12 494.932 401.544 494.58C400.968 494.22 400.524 493.716 400.212 493.068C399.9 492.42 399.744 491.652 399.744 490.764ZM400.788 490.764C400.788 491.852 401.028 492.704 401.508 493.32C401.988 493.928 402.696 494.232 403.632 494.232C404.528 494.232 405.224 493.928 405.72 493.32C406.224 492.704 406.476 491.852 406.476 490.764C406.476 489.668 406.228 488.82 405.732 488.22C405.236 487.612 404.536 487.308 403.632 487.308C402.696 487.308 401.988 487.612 401.508 488.22C401.028 488.82 400.788 489.668 400.788 490.764ZM411.75 495.108C411.158 495.108 410.642 494.98 410.202 494.724C409.77 494.468 409.434 494.104 409.194 493.632C408.962 493.16 408.846 492.6 408.846 491.952C408.846 491.296 408.966 490.74 409.206 490.284C409.446 489.82 409.782 489.468 410.214 489.228C410.654 488.988 411.166 488.868 411.75 488.868C412.134 488.868 412.506 488.936 412.866 489.072C413.234 489.208 413.538 489.4 413.778 489.648L413.43 490.344C413.19 490.112 412.926 489.94 412.638 489.828C412.358 489.716 412.082 489.66 411.81 489.66C411.186 489.66 410.702 489.856 410.358 490.248C410.014 490.64 409.842 491.212 409.842 491.964C409.842 492.708 410.014 493.284 410.358 493.692C410.702 494.1 411.186 494.304 411.81 494.304C412.074 494.304 412.346 494.252 412.626 494.148C412.914 494.044 413.182 493.872 413.43 493.632L413.778 494.316C413.53 494.572 413.222 494.768 412.854 494.904C412.486 495.04 412.118 495.108 411.75 495.108ZM417.295 495.108C416.703 495.108 416.251 494.94 415.939 494.604C415.627 494.26 415.471 493.744 415.471 493.056V489.732H414.295V488.976H415.471V487.332L416.443 487.056V488.976H418.171V489.732H416.443V492.948C416.443 493.428 416.523 493.772 416.683 493.98C416.851 494.18 417.099 494.28 417.427 494.28C417.579 494.28 417.715 494.268 417.835 494.244C417.955 494.212 418.063 494.176 418.159 494.136V494.952C418.047 495 417.911 495.036 417.751 495.06C417.599 495.092 417.447 495.108 417.295 495.108Z" fill="#58545C"/>
<path d="M440.056 495V486.54H440.836L446.26 493.74H445.984V486.54H446.908V495H446.14L440.716 487.8H440.98V495H440.056ZM451.385 495.108C450.809 495.108 450.305 494.984 449.873 494.736C449.449 494.48 449.121 494.12 448.889 493.656C448.657 493.184 448.541 492.628 448.541 491.988C448.541 491.34 448.657 490.784 448.889 490.32C449.121 489.856 449.449 489.5 449.873 489.252C450.305 488.996 450.809 488.868 451.385 488.868C451.969 488.868 452.473 488.996 452.897 489.252C453.329 489.5 453.661 489.856 453.893 490.32C454.133 490.784 454.253 491.34 454.253 491.988C454.253 492.628 454.133 493.184 453.893 493.656C453.661 494.12 453.329 494.48 452.897 494.736C452.473 494.984 451.969 495.108 451.385 495.108ZM451.385 494.316C451.961 494.316 452.417 494.12 452.753 493.728C453.089 493.328 453.257 492.748 453.257 491.988C453.257 491.22 453.085 490.64 452.741 490.248C452.405 489.848 451.953 489.648 451.385 489.648C450.817 489.648 450.365 489.848 450.029 490.248C449.693 490.64 449.525 491.22 449.525 491.988C449.525 492.748 449.693 493.328 450.029 493.728C450.365 494.12 450.817 494.316 451.385 494.316ZM457.462 495L454.882 488.976H455.938L458.098 494.28H457.774L459.958 488.976H460.966L458.386 495H457.462Z" fill="#58545C"/>
<path d="M483.056 495V486.54H485.864C486.8 486.54 487.592 486.704 488.24 487.032C488.888 487.352 489.38 487.828 489.716 488.46C490.052 489.084 490.22 489.852 490.22 490.764C490.22 491.668 490.052 492.436 489.716 493.068C489.38 493.7 488.888 494.18 488.24 494.508C487.592 494.836 486.8 495 485.864 495H483.056ZM484.052 494.148H485.792C486.944 494.148 487.8 493.868 488.36 493.308C488.92 492.74 489.2 491.892 489.2 490.764C489.2 489.628 488.92 488.78 488.36 488.22C487.8 487.66 486.944 487.38 485.792 487.38H484.052V494.148ZM494.589 495.108C493.645 495.108 492.901 494.836 492.357 494.292C491.813 493.74 491.541 492.976 491.541 492C491.541 491.368 491.661 490.82 491.901 490.356C492.141 489.884 492.477 489.52 492.909 489.264C493.341 489 493.837 488.868 494.397 488.868C494.949 488.868 495.413 488.984 495.789 489.216C496.165 489.448 496.453 489.78 496.653 490.212C496.853 490.636 496.953 491.14 496.953 491.724V492.084H492.285V491.472H496.317L496.113 491.628C496.113 490.988 495.969 490.488 495.681 490.128C495.393 489.768 494.965 489.588 494.397 489.588C493.797 489.588 493.329 489.8 492.993 490.224C492.657 490.64 492.489 491.204 492.489 491.916V492.024C492.489 492.776 492.673 493.348 493.041 493.74C493.417 494.124 493.941 494.316 494.613 494.316C494.973 494.316 495.309 494.264 495.621 494.16C495.941 494.048 496.245 493.868 496.533 493.62L496.869 494.304C496.605 494.56 496.269 494.76 495.861 494.904C495.461 495.04 495.037 495.108 494.589 495.108ZM500.972 495.108C500.38 495.108 499.864 494.98 499.424 494.724C498.992 494.468 498.656 494.104 498.416 493.632C498.184 493.16 498.068 492.6 498.068 491.952C498.068 491.296 498.188 490.74 498.428 490.284C498.668 489.82 499.004 489.468 499.436 489.228C499.876 488.988 500.388 488.868 500.972 488.868C501.356 488.868 501.728 488.936 502.088 489.072C502.456 489.208 502.76 489.4 503 489.648L502.652 490.344C502.412 490.112 502.148 489.94 501.86 489.828C501.58 489.716 501.304 489.66 501.032 489.66C500.408 489.66 499.924 489.856 499.58 490.248C499.236 490.64 499.064 491.212 499.064 491.964C499.064 492.708 499.236 493.284 499.58 493.692C499.924 494.1 500.408 494.304 501.032 494.304C501.296 494.304 501.568 494.252 501.848 494.148C502.136 494.044 502.404 493.872 502.652 493.632L503 494.316C502.752 494.572 502.444 494.768 502.076 494.904C501.708 495.04 501.34 495.108 500.972 495.108Z" fill="#58545C"/>
<path d="M524.948 497.232C524.82 497.232 524.672 497.224 524.504 497.208C524.344 497.2 524.18 497.176 524.012 497.136V496.308C524.164 496.34 524.304 496.364 524.432 496.38C524.568 496.404 524.688 496.416 524.792 496.416C525.16 496.416 525.436 496.3 525.62 496.068C525.804 495.844 525.896 495.484 525.896 494.988V486.54H526.892V495C526.892 495.48 526.82 495.888 526.676 496.224C526.54 496.56 526.328 496.812 526.04 496.98C525.76 497.148 525.396 497.232 524.948 497.232ZM531.189 495.108C530.653 495.108 530.185 494.984 529.785 494.736C529.385 494.48 529.073 494.12 528.849 493.656C528.633 493.192 528.525 492.636 528.525 491.988C528.525 491.332 528.633 490.772 528.849 490.308C529.073 489.844 529.385 489.488 529.785 489.24C530.185 488.992 530.653 488.868 531.189 488.868C531.733 488.868 532.201 489.008 532.593 489.288C532.993 489.56 533.257 489.932 533.385 490.404H533.241L533.373 488.976H534.309C534.285 489.208 534.261 489.444 534.237 489.684C534.221 489.916 534.213 490.144 534.213 490.368V495H533.241V493.584H533.373C533.245 494.056 532.981 494.428 532.581 494.7C532.181 494.972 531.717 495.108 531.189 495.108ZM531.381 494.316C531.957 494.316 532.413 494.12 532.749 493.728C533.085 493.328 533.253 492.748 533.253 491.988C533.253 491.22 533.085 490.64 532.749 490.248C532.413 489.848 531.957 489.648 531.381 489.648C530.813 489.648 530.357 489.848 530.013 490.248C529.677 490.64 529.509 491.22 529.509 491.988C529.509 492.748 529.677 493.328 530.013 493.728C530.357 494.12 530.813 494.316 531.381 494.316ZM536.093 495V490.368C536.093 490.144 536.081 489.916 536.057 489.684C536.041 489.444 536.021 489.208 535.997 488.976H536.933L537.053 490.296H536.909C537.085 489.832 537.365 489.48 537.749 489.24C538.141 488.992 538.593 488.868 539.105 488.868C539.817 488.868 540.353 489.06 540.713 489.444C541.081 489.82 541.265 490.416 541.265 491.232V495H540.293V491.292C540.293 490.724 540.177 490.312 539.945 490.056C539.721 489.792 539.369 489.66 538.889 489.66C538.329 489.66 537.885 489.832 537.557 490.176C537.229 490.52 537.065 490.98 537.065 491.556V495H536.093Z" fill="#58545C"/>
<path d="M174.136 237.144C173.229 237.144 172.408 237.032 171.672 236.808C170.936 236.573 170.296 236.243 169.752 235.816L170.312 234.504C170.675 234.781 171.048 235.011 171.432 235.192C171.827 235.373 172.243 235.512 172.68 235.608C173.128 235.693 173.613 235.736 174.136 235.736C175.032 235.736 175.688 235.576 176.104 235.256C176.531 234.936 176.744 234.515 176.744 233.992C176.744 233.544 176.595 233.197 176.296 232.952C176.008 232.707 175.496 232.509 174.76 232.36L173.016 232.008C171.981 231.795 171.208 231.448 170.696 230.968C170.195 230.477 169.944 229.811 169.944 228.968C169.944 228.285 170.125 227.688 170.488 227.176C170.851 226.664 171.352 226.269 171.992 225.992C172.643 225.715 173.4 225.576 174.264 225.576C175.064 225.576 175.8 225.693 176.472 225.928C177.144 226.152 177.709 226.488 178.168 226.936L177.624 228.2C177.144 227.784 176.632 227.48 176.088 227.288C175.544 227.085 174.925 226.984 174.232 226.984C173.411 226.984 172.765 227.155 172.296 227.496C171.837 227.837 171.608 228.301 171.608 228.888C171.608 229.357 171.752 229.725 172.04 229.992C172.339 230.259 172.829 230.461 173.512 230.6L175.256 230.936C176.333 231.16 177.128 231.507 177.64 231.976C178.152 232.435 178.408 233.069 178.408 233.88C178.408 234.531 178.232 235.101 177.88 235.592C177.539 236.083 177.048 236.467 176.408 236.744C175.768 237.011 175.011 237.144 174.136 237.144ZM180.309 237V225.224H181.925V230.648H181.701C181.936 230.04 182.314 229.581 182.837 229.272C183.36 228.952 183.962 228.792 184.645 228.792C185.605 228.792 186.32 229.059 186.789 229.592C187.258 230.115 187.493 230.909 187.493 231.976V237H185.877V232.072C185.877 231.379 185.738 230.877 185.461 230.568C185.194 230.248 184.768 230.088 184.181 230.088C183.498 230.088 182.949 230.301 182.533 230.728C182.128 231.144 181.925 231.699 181.925 232.392V237H180.309ZM192.881 237.144C192.167 237.144 191.543 236.979 191.009 236.648C190.476 236.317 190.06 235.837 189.761 235.208C189.473 234.579 189.329 233.832 189.329 232.968C189.329 232.093 189.473 231.347 189.761 230.728C190.06 230.109 190.476 229.635 191.009 229.304C191.543 228.963 192.167 228.792 192.881 228.792C193.585 228.792 194.199 228.968 194.721 229.32C195.244 229.672 195.591 230.152 195.761 230.76H195.585L195.745 228.936H197.313C197.281 229.267 197.249 229.597 197.217 229.928C197.196 230.248 197.185 230.563 197.185 230.872V237H195.569V235.208H195.745C195.575 235.805 195.223 236.28 194.689 236.632C194.167 236.973 193.564 237.144 192.881 237.144ZM193.281 235.88C193.975 235.88 194.529 235.635 194.945 235.144C195.372 234.653 195.585 233.928 195.585 232.968C195.585 232.008 195.372 231.288 194.945 230.808C194.529 230.317 193.975 230.072 193.281 230.072C192.577 230.072 192.012 230.317 191.585 230.808C191.169 231.288 190.961 232.008 190.961 232.968C190.961 233.928 191.169 234.653 191.585 235.144C192.001 235.635 192.567 235.88 193.281 235.88ZM199.511 237V230.936C199.511 230.605 199.501 230.275 199.479 229.944C199.469 229.603 199.447 229.267 199.415 228.936H200.983L201.159 231.016H200.903C201.01 230.515 201.191 230.099 201.447 229.768C201.703 229.437 202.013 229.192 202.375 229.032C202.749 228.872 203.138 228.792 203.543 228.792C203.714 228.792 203.858 228.803 203.975 228.824C204.093 228.835 204.21 228.856 204.327 228.888L204.311 230.328C204.13 230.253 203.97 230.211 203.831 230.2C203.703 230.179 203.543 230.168 203.351 230.168C202.882 230.168 202.482 230.275 202.151 230.488C201.821 230.691 201.57 230.968 201.399 231.32C201.229 231.672 201.143 232.051 201.143 232.456V237H199.511ZM209.193 237.144C207.892 237.144 206.868 236.776 206.121 236.04C205.375 235.304 205.001 234.285 205.001 232.984C205.001 232.141 205.161 231.405 205.481 230.776C205.812 230.147 206.265 229.661 206.841 229.32C207.428 228.968 208.105 228.792 208.873 228.792C209.631 228.792 210.265 228.952 210.777 229.272C211.289 229.592 211.679 230.045 211.945 230.632C212.212 231.208 212.345 231.891 212.345 232.68V233.192H206.265V232.264H211.241L210.969 232.472C210.969 231.672 210.788 231.053 210.425 230.616C210.073 230.168 209.561 229.944 208.889 229.944C208.143 229.944 207.567 230.205 207.161 230.728C206.756 231.24 206.553 231.949 206.553 232.856V233.016C206.553 233.965 206.783 234.68 207.241 235.16C207.711 235.64 208.372 235.88 209.225 235.88C209.695 235.88 210.132 235.816 210.537 235.688C210.953 235.549 211.348 235.325 211.721 235.016L212.249 236.12C211.876 236.451 211.423 236.707 210.889 236.888C210.356 237.059 209.791 237.144 209.193 237.144ZM221.921 237.144C221.121 237.144 220.428 236.979 219.841 236.648C219.255 236.307 218.801 235.827 218.481 235.208C218.161 234.579 218.001 233.832 218.001 232.968C218.001 232.104 218.161 231.363 218.481 230.744C218.801 230.115 219.255 229.635 219.841 229.304C220.428 228.963 221.121 228.792 221.921 228.792C222.721 228.792 223.415 228.963 224.001 229.304C224.599 229.635 225.057 230.115 225.377 230.744C225.708 231.363 225.873 232.104 225.873 232.968C225.873 233.832 225.708 234.579 225.377 235.208C225.057 235.827 224.599 236.307 224.001 236.648C223.415 236.979 222.721 237.144 221.921 237.144ZM221.921 235.88C222.625 235.88 223.185 235.635 223.601 235.144C224.017 234.653 224.225 233.928 224.225 232.968C224.225 232.008 224.017 231.288 223.601 230.808C223.185 230.317 222.625 230.072 221.921 230.072C221.228 230.072 220.673 230.317 220.257 230.808C219.841 231.288 219.633 232.008 219.633 232.968C219.633 233.928 219.836 234.653 220.241 235.144C220.657 235.635 221.217 235.88 221.921 235.88ZM228.164 237V230.184H226.596V228.936H228.612L228.164 229.352V228.072C228.164 227.123 228.404 226.403 228.884 225.912C229.364 225.411 230.068 225.16 230.996 225.16C231.22 225.16 231.455 225.176 231.7 225.208C231.945 225.24 232.148 225.293 232.308 225.368V226.68C232.18 226.627 232.02 226.584 231.828 226.552C231.647 226.509 231.46 226.488 231.268 226.488C230.959 226.488 230.692 226.552 230.468 226.68C230.244 226.797 230.068 226.979 229.94 227.224C229.823 227.469 229.764 227.784 229.764 228.168V229.256L229.524 228.936H231.956V230.184H229.78V237H228.164ZM241.319 237L236.359 225.72H238.151L242.375 235.608H241.799L246.039 225.72H247.751L242.775 237H241.319ZM251.39 237.144C250.59 237.144 249.897 236.979 249.31 236.648C248.723 236.307 248.27 235.827 247.95 235.208C247.63 234.579 247.47 233.832 247.47 232.968C247.47 232.104 247.63 231.363 247.95 230.744C248.27 230.115 248.723 229.635 249.31 229.304C249.897 228.963 250.59 228.792 251.39 228.792C252.19 228.792 252.883 228.963 253.47 229.304C254.067 229.635 254.526 230.115 254.846 230.744C255.177 231.363 255.342 232.104 255.342 232.968C255.342 233.832 255.177 234.579 254.846 235.208C254.526 235.827 254.067 236.307 253.47 236.648C252.883 236.979 252.19 237.144 251.39 237.144ZM251.39 235.88C252.094 235.88 252.654 235.635 253.07 235.144C253.486 234.653 253.694 233.928 253.694 232.968C253.694 232.008 253.486 231.288 253.07 230.808C252.654 230.317 252.094 230.072 251.39 230.072C250.697 230.072 250.142 230.317 249.726 230.808C249.31 231.288 249.102 232.008 249.102 232.968C249.102 233.928 249.305 234.653 249.71 235.144C250.126 235.635 250.686 235.88 251.39 235.88ZM257.231 237V228.936H258.847V237H257.231ZM257.103 227.256V225.576L258.975 225.576V227.256H257.103ZM264.751 237.144C263.941 237.144 263.231 236.979 262.623 236.648C262.026 236.307 261.562 235.821 261.231 235.192C260.911 234.552 260.751 233.795 260.751 232.92C260.751 232.056 260.917 231.315 261.247 230.696C261.578 230.077 262.042 229.608 262.639 229.288C263.237 228.957 263.941 228.792 264.751 228.792C265.274 228.792 265.781 228.883 266.271 229.064C266.762 229.235 267.167 229.48 267.487 229.8L266.959 230.936C266.661 230.648 266.325 230.435 265.951 230.296C265.578 230.147 265.215 230.072 264.863 230.072C264.095 230.072 263.493 230.317 263.055 230.808C262.618 231.299 262.399 232.008 262.399 232.936C262.399 233.875 262.618 234.595 263.055 235.096C263.493 235.597 264.095 235.848 264.863 235.848C265.205 235.848 265.562 235.784 265.935 235.656C266.309 235.517 266.65 235.299 266.959 235L267.487 236.136C267.157 236.456 266.741 236.707 266.239 236.888C265.749 237.059 265.253 237.144 264.751 237.144ZM272.771 237.144C271.47 237.144 270.446 236.776 269.699 236.04C268.953 235.304 268.579 234.285 268.579 232.984C268.579 232.141 268.739 231.405 269.059 230.776C269.39 230.147 269.843 229.661 270.419 229.32C271.006 228.968 271.683 228.792 272.451 228.792C273.209 228.792 273.843 228.952 274.355 229.272C274.867 229.592 275.257 230.045 275.523 230.632C275.79 231.208 275.923 231.891 275.923 232.68V233.192H269.843V232.264H274.819L274.547 232.472C274.547 231.672 274.366 231.053 274.003 230.616C273.651 230.168 273.139 229.944 272.467 229.944C271.721 229.944 271.145 230.205 270.739 230.728C270.334 231.24 270.131 231.949 270.131 232.856V233.016C270.131 233.965 270.361 234.68 270.819 235.16C271.289 235.64 271.95 235.88 272.803 235.88C273.273 235.88 273.71 235.816 274.115 235.688C274.531 235.549 274.926 235.325 275.299 235.016L275.827 236.12C275.454 236.451 275.001 236.707 274.467 236.888C273.934 237.059 273.369 237.144 272.771 237.144Z" fill="#E3E0E6"/>
<path d="M200 328.5L215.5 328.5L233.981 336.058L251.048 334.012L268.115 356.424L285.183 362.627L302.25 359.316L319.317 357.668L336.385 364.026L353.452 359.805L370.519 362.617L387.586 369.19L404.654 342.964L421.721 358.78L438.788 360.266L455.856 345.328L472.923 360.291L489.99 361.046L507.058 360.786L524.125 355.449L541.192 346.773L559.5 352H583.5" stroke="#8C74CC" stroke-width="2" stroke-linecap="round" stroke-linejoin="round"/>
<path d="M200 328.5L215.5 328.5L233.981 336.058L251.048 334.012L268.115 356.424L285.183 362.627L302.25 359.316L319.317 357.668L336.385 364.026L353.452 359.805L370.519 362.617L387.587 369.19L404.654 342.964L421.721 358.78L438.789 360.266L455.856 345.328L472.923 360.291L489.99 361.046L507.058 360.786L524.125 355.449L541.192 346.773L559.5 352H583.5V467.5H200V328.5Z" fill="url(#paint0_linear_241_2851)"/>
<line x1="325.5" y1="263" x2="325.5" y2="467" stroke="#67788C" stroke-dasharray="2 2"/>
<line x1="375.5" y1="263" x2="375.5" y2="467" stroke="#67788C" stroke-dasharray="2 2"/>
<line x1="505.5" y1="263" x2="505.5" y2="467" stroke="#67788C" stroke-dasharray="2 2"/>
<rect x="315" y="243" width="20" height="20" rx="4" fill="#506F8B"/>
<path d="M330.719 253.641C330.719 256.969 328.445 259.312 325.094 259.312C321.859 259.312 319.281 256.734 319.281 253.5C319.281 250.289 321.859 247.688 325.094 247.688C326.641 247.688 327.977 248.273 328.984 249.211L327.391 250.734C325.328 248.742 321.484 250.242 321.484 253.5C321.484 255.539 323.102 257.18 325.094 257.18C327.391 257.18 328.258 255.539 328.375 254.672H325.094V252.68H330.625C330.672 252.984 330.719 253.266 330.719 253.641Z" fill="white"/>
<rect x="365" y="243" width="20" height="20" rx="4" fill="#506F8B"/>
<path d="M380.719 253.641C380.719 256.969 378.445 259.312 375.094 259.312C371.859 259.312 369.281 256.734 369.281 253.5C369.281 250.289 371.859 247.688 375.094 247.688C376.641 247.688 377.977 248.273 378.984 249.211L377.391 250.734C375.328 248.742 371.484 250.242 371.484 253.5C371.484 255.539 373.102 257.18 375.094 257.18C377.391 257.18 378.258 255.539 378.375 254.672H375.094V252.68H380.625C380.672 252.984 380.719 253.266 380.719 253.641Z" fill="white"/>
<rect x="495" y="243" width="20" height="20" rx="4" fill="#506F8B"/>
<path d="M510.719 253.641C510.719 256.969 508.445 259.312 505.094 259.312C501.859 259.312 499.281 256.734 499.281 253.5C499.281 250.289 501.859 247.688 505.094 247.688C506.641 247.688 507.977 248.273 508.984 249.211L507.391 250.734C505.328 248.742 501.484 250.242 501.484 253.5C501.484 255.539 503.102 257.18 505.094 257.18C507.391 257.18 508.258 255.539 508.375 254.672H505.094V252.68H510.625C510.672 252.984 510.719 253.266 510.719 253.641Z" fill="white"/>
<g filter="url(#filter1_d_241_2851)">
<rect x="407" y="388" width="230" height="170" rx="16" fill="#332E38"/>
<rect x="407" y="388" width="230" height="170" rx="16" stroke="#433B4A"/>
<path d="M476.81 418.126C475.718 418.126 474.799 417.925 474.052 417.524C473.315 417.113 472.759 416.53 472.386 415.774C472.013 415.018 471.826 414.117 471.826 413.072C471.826 412.027 472.022 411.126 472.414 410.37C472.815 409.614 473.385 409.031 474.122 408.62C474.869 408.209 475.765 408.004 476.81 408.004C477.529 408.004 478.154 408.107 478.686 408.312C479.218 408.508 479.694 408.797 480.114 409.18L479.596 410.314C479.297 410.062 479.008 409.861 478.728 409.712C478.448 409.563 478.159 409.455 477.86 409.39C477.561 409.315 477.211 409.278 476.81 409.278C475.681 409.278 474.822 409.609 474.234 410.272C473.646 410.935 473.352 411.873 473.352 413.086C473.352 414.318 473.632 415.256 474.192 415.9C474.761 416.544 475.653 416.866 476.866 416.866C477.286 416.866 477.701 416.829 478.112 416.754C478.523 416.67 478.919 416.549 479.302 416.39L479.022 417.076V413.842H476.586V412.75H480.24V417.412C479.811 417.627 479.283 417.799 478.658 417.93C478.042 418.061 477.426 418.126 476.81 418.126ZM485.255 418.126C484.555 418.126 483.948 417.981 483.435 417.692C482.922 417.393 482.525 416.973 482.245 416.432C481.965 415.881 481.825 415.228 481.825 414.472C481.825 413.716 481.965 413.067 482.245 412.526C482.525 411.975 482.922 411.555 483.435 411.266C483.948 410.967 484.555 410.818 485.255 410.818C485.955 410.818 486.562 410.967 487.075 411.266C487.598 411.555 487.999 411.975 488.279 412.526C488.568 413.067 488.713 413.716 488.713 414.472C488.713 415.228 488.568 415.881 488.279 416.432C487.999 416.973 487.598 417.393 487.075 417.692C486.562 417.981 485.955 418.126 485.255 418.126ZM485.255 417.02C485.871 417.02 486.361 416.805 486.725 416.376C487.089 415.947 487.271 415.312 487.271 414.472C487.271 413.632 487.089 413.002 486.725 412.582C486.361 412.153 485.871 411.938 485.255 411.938C484.648 411.938 484.163 412.153 483.799 412.582C483.435 413.002 483.253 413.632 483.253 414.472C483.253 415.312 483.43 415.947 483.785 416.376C484.149 416.805 484.639 417.02 485.255 417.02ZM493.29 418.126C492.59 418.126 491.983 417.981 491.47 417.692C490.956 417.393 490.56 416.973 490.28 416.432C490 415.881 489.86 415.228 489.86 414.472C489.86 413.716 490 413.067 490.28 412.526C490.56 411.975 490.956 411.555 491.47 411.266C491.983 410.967 492.59 410.818 493.29 410.818C493.99 410.818 494.596 410.967 495.11 411.266C495.632 411.555 496.034 411.975 496.314 412.526C496.603 413.067 496.748 413.716 496.748 414.472C496.748 415.228 496.603 415.881 496.314 416.432C496.034 416.973 495.632 417.393 495.11 417.692C494.596 417.981 493.99 418.126 493.29 418.126ZM493.29 417.02C493.906 417.02 494.396 416.805 494.76 416.376C495.124 415.947 495.306 415.312 495.306 414.472C495.306 413.632 495.124 413.002 494.76 412.582C494.396 412.153 493.906 411.938 493.29 411.938C492.683 411.938 492.198 412.153 491.834 412.582C491.47 413.002 491.288 413.632 491.288 414.472C491.288 415.312 491.465 415.947 491.82 416.376C492.184 416.805 492.674 417.02 493.29 417.02ZM501.478 421.136C500.844 421.136 500.265 421.061 499.742 420.912C499.229 420.763 498.767 420.539 498.356 420.24L498.706 419.204C498.996 419.4 499.28 419.554 499.56 419.666C499.84 419.787 500.134 419.876 500.442 419.932C500.75 419.988 501.068 420.016 501.394 420.016C502.066 420.016 502.57 419.843 502.906 419.498C503.252 419.162 503.424 418.672 503.424 418.028V416.138H503.564C503.415 416.661 503.107 417.076 502.64 417.384C502.183 417.683 501.651 417.832 501.044 417.832C500.4 417.832 499.84 417.692 499.364 417.412C498.898 417.123 498.534 416.717 498.272 416.194C498.02 415.662 497.894 415.037 497.894 414.318C497.894 413.599 498.02 412.979 498.272 412.456C498.534 411.933 498.898 411.532 499.364 411.252C499.84 410.963 500.4 410.818 501.044 410.818C501.66 410.818 502.192 410.972 502.64 411.28C503.098 411.579 503.401 411.989 503.55 412.512L503.424 412.4L503.55 410.944H504.922C504.885 411.233 504.857 411.523 504.838 411.812C504.82 412.092 504.81 412.367 504.81 412.638V417.86C504.81 418.924 504.526 419.736 503.956 420.296C503.396 420.856 502.57 421.136 501.478 421.136ZM501.38 416.726C501.996 416.726 502.486 416.516 502.85 416.096C503.224 415.676 503.41 415.083 503.41 414.318C503.41 413.553 503.224 412.965 502.85 412.554C502.486 412.143 501.996 411.938 501.38 411.938C500.746 411.938 500.242 412.143 499.868 412.554C499.504 412.965 499.322 413.553 499.322 414.318C499.322 415.083 499.504 415.676 499.868 416.096C500.242 416.516 500.746 416.726 501.38 416.726ZM506.773 418V407.696H508.187V418H506.773ZM513.421 418.126C512.282 418.126 511.386 417.804 510.733 417.16C510.08 416.516 509.753 415.625 509.753 414.486C509.753 413.749 509.893 413.105 510.173 412.554C510.462 412.003 510.859 411.579 511.363 411.28C511.876 410.972 512.469 410.818 513.141 410.818C513.804 410.818 514.359 410.958 514.807 411.238C515.255 411.518 515.596 411.915 515.829 412.428C516.062 412.932 516.179 413.529 516.179 414.22V414.668H510.859V413.856H515.213L514.975 414.038C514.975 413.338 514.816 412.797 514.499 412.414C514.191 412.022 513.743 411.826 513.155 411.826C512.502 411.826 511.998 412.055 511.643 412.512C511.288 412.96 511.111 413.581 511.111 414.374V414.514C511.111 415.345 511.312 415.97 511.713 416.39C512.124 416.81 512.702 417.02 513.449 417.02C513.86 417.02 514.242 416.964 514.597 416.852C514.961 416.731 515.306 416.535 515.633 416.264L516.095 417.23C515.768 417.519 515.372 417.743 514.905 417.902C514.438 418.051 513.944 418.126 513.421 418.126ZM524.792 418.126C523.999 418.126 523.28 418.028 522.636 417.832C521.992 417.627 521.432 417.337 520.956 416.964L521.446 415.816C521.763 416.059 522.09 416.259 522.426 416.418C522.771 416.577 523.135 416.698 523.518 416.782C523.91 416.857 524.335 416.894 524.792 416.894C525.576 416.894 526.15 416.754 526.514 416.474C526.887 416.194 527.074 415.825 527.074 415.368C527.074 414.976 526.943 414.673 526.682 414.458C526.43 414.243 525.982 414.071 525.338 413.94L523.812 413.632C522.907 413.445 522.23 413.142 521.782 412.722C521.343 412.293 521.124 411.709 521.124 410.972C521.124 410.375 521.283 409.852 521.6 409.404C521.917 408.956 522.356 408.611 522.916 408.368C523.485 408.125 524.148 408.004 524.904 408.004C525.604 408.004 526.248 408.107 526.836 408.312C527.424 408.508 527.919 408.802 528.32 409.194L527.844 410.3C527.424 409.936 526.976 409.67 526.5 409.502C526.024 409.325 525.483 409.236 524.876 409.236C524.157 409.236 523.593 409.385 523.182 409.684C522.781 409.983 522.58 410.389 522.58 410.902C522.58 411.313 522.706 411.635 522.958 411.868C523.219 412.101 523.649 412.279 524.246 412.4L525.772 412.694C526.715 412.89 527.41 413.193 527.858 413.604C528.306 414.005 528.53 414.561 528.53 415.27C528.53 415.839 528.376 416.339 528.068 416.768C527.769 417.197 527.34 417.533 526.78 417.776C526.22 418.009 525.557 418.126 524.792 418.126ZM533.355 418.126C532.217 418.126 531.321 417.804 530.667 417.16C530.014 416.516 529.687 415.625 529.687 414.486C529.687 413.749 529.827 413.105 530.107 412.554C530.397 412.003 530.793 411.579 531.297 411.28C531.811 410.972 532.403 410.818 533.075 410.818C533.738 410.818 534.293 410.958 534.741 411.238C535.189 411.518 535.53 411.915 535.763 412.428C535.997 412.932 536.113 413.529 536.113 414.22V414.668H530.793V413.856H535.147L534.909 414.038C534.909 413.338 534.751 412.797 534.433 412.414C534.125 412.022 533.677 411.826 533.089 411.826C532.436 411.826 531.932 412.055 531.577 412.512C531.223 412.96 531.045 413.581 531.045 414.374V414.514C531.045 415.345 531.246 415.97 531.647 416.39C532.058 416.81 532.637 417.02 533.383 417.02C533.794 417.02 534.177 416.964 534.531 416.852C534.895 416.731 535.241 416.535 535.567 416.264L536.029 417.23C535.703 417.519 535.306 417.743 534.839 417.902C534.373 418.051 533.878 418.126 533.355 418.126ZM540.338 418.126C539.713 418.126 539.167 417.981 538.7 417.692C538.233 417.403 537.869 416.983 537.608 416.432C537.356 415.881 537.23 415.228 537.23 414.472C537.23 413.707 537.356 413.053 537.608 412.512C537.869 411.971 538.233 411.555 538.7 411.266C539.167 410.967 539.713 410.818 540.338 410.818C540.954 410.818 541.491 410.972 541.948 411.28C542.405 411.588 542.709 412.008 542.858 412.54H542.704L542.844 410.944H544.216C544.188 411.233 544.16 411.523 544.132 411.812C544.113 412.092 544.104 412.367 544.104 412.638V418H542.69V416.432H542.844C542.695 416.955 542.387 417.37 541.92 417.678C541.463 417.977 540.935 418.126 540.338 418.126ZM540.688 417.02C541.295 417.02 541.78 416.805 542.144 416.376C542.517 415.947 542.704 415.312 542.704 414.472C542.704 413.632 542.517 413.002 542.144 412.582C541.78 412.153 541.295 411.938 540.688 411.938C540.072 411.938 539.577 412.153 539.204 412.582C538.84 413.002 538.658 413.632 538.658 414.472C538.658 415.312 538.84 415.947 539.204 416.376C539.568 416.805 540.063 417.02 540.688 417.02ZM546.039 418V412.694C546.039 412.405 546.03 412.115 546.011 411.826C546.002 411.527 545.983 411.233 545.955 410.944H547.327L547.481 412.764H547.257C547.351 412.325 547.509 411.961 547.733 411.672C547.957 411.383 548.228 411.168 548.545 411.028C548.872 410.888 549.213 410.818 549.567 410.818C549.717 410.818 549.843 410.827 549.945 410.846C550.048 410.855 550.151 410.874 550.253 410.902L550.239 412.162C550.081 412.097 549.941 412.059 549.819 412.05C549.707 412.031 549.567 412.022 549.399 412.022C548.989 412.022 548.639 412.115 548.349 412.302C548.06 412.479 547.841 412.722 547.691 413.03C547.542 413.338 547.467 413.669 547.467 414.024V418H546.039ZM554.243 418.126C553.534 418.126 552.913 417.981 552.381 417.692C551.858 417.393 551.452 416.969 551.163 416.418C550.883 415.858 550.743 415.195 550.743 414.43C550.743 413.674 550.888 413.025 551.177 412.484C551.466 411.943 551.872 411.532 552.395 411.252C552.918 410.963 553.534 410.818 554.243 410.818C554.7 410.818 555.144 410.897 555.573 411.056C556.002 411.205 556.357 411.42 556.637 411.7L556.175 412.694C555.914 412.442 555.62 412.255 555.293 412.134C554.966 412.003 554.649 411.938 554.341 411.938C553.669 411.938 553.142 412.153 552.759 412.582C552.376 413.011 552.185 413.632 552.185 414.444C552.185 415.265 552.376 415.895 552.759 416.334C553.142 416.773 553.669 416.992 554.341 416.992C554.64 416.992 554.952 416.936 555.279 416.824C555.606 416.703 555.904 416.511 556.175 416.25L556.637 417.244C556.348 417.524 555.984 417.743 555.545 417.902C555.116 418.051 554.682 418.126 554.243 418.126ZM558.035 418V407.696H559.449V412.442H559.253C559.459 411.91 559.79 411.509 560.247 411.238C560.705 410.958 561.232 410.818 561.829 410.818C562.669 410.818 563.295 411.051 563.705 411.518C564.116 411.975 564.321 412.671 564.321 413.604V418H562.907V413.688C562.907 413.081 562.786 412.643 562.543 412.372C562.31 412.092 561.937 411.952 561.423 411.952C560.826 411.952 560.345 412.139 559.981 412.512C559.627 412.876 559.449 413.361 559.449 413.968V418H558.035ZM574.43 418.126C573.422 418.126 572.564 417.921 571.854 417.51C571.145 417.099 570.599 416.516 570.216 415.76C569.843 414.995 569.656 414.094 569.656 413.058C569.656 412.022 569.843 411.126 570.216 410.37C570.599 409.614 571.145 409.031 571.854 408.62C572.564 408.209 573.422 408.004 574.43 408.004C575.13 408.004 575.756 408.107 576.306 408.312C576.857 408.517 577.338 408.816 577.748 409.208L577.244 410.37C576.796 409.987 576.358 409.712 575.928 409.544C575.508 409.376 575.018 409.292 574.458 409.292C573.394 409.292 572.582 409.619 572.022 410.272C571.462 410.925 571.182 411.854 571.182 413.058C571.182 414.262 571.462 415.195 572.022 415.858C572.582 416.511 573.394 416.838 574.458 416.838C575.018 416.838 575.508 416.754 575.928 416.586C576.358 416.418 576.796 416.138 577.244 415.746L577.748 416.908C577.338 417.3 576.857 417.603 576.306 417.818C575.756 418.023 575.13 418.126 574.43 418.126ZM582.12 418.126C580.982 418.126 580.086 417.804 579.432 417.16C578.779 416.516 578.452 415.625 578.452 414.486C578.452 413.749 578.592 413.105 578.872 412.554C579.162 412.003 579.558 411.579 580.062 411.28C580.576 410.972 581.168 410.818 581.84 410.818C582.503 410.818 583.058 410.958 583.506 411.238C583.954 411.518 584.295 411.915 584.528 412.428C584.762 412.932 584.878 413.529 584.878 414.22V414.668H579.558V413.856H583.912L583.674 414.038C583.674 413.338 583.516 412.797 583.198 412.414C582.89 412.022 582.442 411.826 581.854 411.826C581.201 411.826 580.697 412.055 580.342 412.512C579.988 412.96 579.81 413.581 579.81 414.374V414.514C579.81 415.345 580.011 415.97 580.412 416.39C580.823 416.81 581.402 417.02 582.148 417.02C582.559 417.02 582.942 416.964 583.296 416.852C583.66 416.731 584.006 416.535 584.332 416.264L584.794 417.23C584.468 417.519 584.071 417.743 583.604 417.902C583.138 418.051 582.643 418.126 582.12 418.126ZM586.401 418V412.638C586.401 412.367 586.387 412.092 586.359 411.812C586.34 411.523 586.317 411.233 586.289 410.944H587.661L587.787 412.428H587.619C587.834 411.905 588.165 411.509 588.613 411.238C589.061 410.958 589.579 410.818 590.167 410.818C590.998 410.818 591.623 411.047 592.043 411.504C592.472 411.961 592.687 412.671 592.687 413.632V418H591.273V413.716C591.273 413.091 591.147 412.643 590.895 412.372C590.652 412.092 590.279 411.952 589.775 411.952C589.178 411.952 588.702 412.139 588.347 412.512C587.992 412.876 587.815 413.371 587.815 413.996V418H586.401ZM597.344 418.126C596.578 418.126 596 417.921 595.608 417.51C595.216 417.09 595.02 416.465 595.02 415.634V412.036H593.648V410.944H595.02V409.082L596.434 408.704V410.944H598.394V412.036H596.434V415.508C596.434 416.031 596.527 416.404 596.714 416.628C596.9 416.852 597.171 416.964 597.526 416.964C597.703 416.964 597.857 416.95 597.988 416.922C598.128 416.885 598.254 416.843 598.366 416.796V417.944C598.226 418 598.062 418.042 597.876 418.07C597.689 418.107 597.512 418.126 597.344 418.126ZM599.558 418V412.694C599.558 412.405 599.548 412.115 599.53 411.826C599.52 411.527 599.502 411.233 599.474 410.944H600.846L601 412.764H600.776C600.869 412.325 601.028 411.961 601.252 411.672C601.476 411.383 601.746 411.168 602.064 411.028C602.39 410.888 602.731 410.818 603.086 410.818C603.235 410.818 603.361 410.827 603.464 410.846C603.566 410.855 603.669 410.874 603.772 410.902L603.758 412.162C603.599 412.097 603.459 412.059 603.338 412.05C603.226 412.031 603.086 412.022 602.918 412.022C602.507 412.022 602.157 412.115 601.868 412.302C601.578 412.479 601.359 412.722 601.21 413.03C601.06 413.338 600.986 413.669 600.986 414.024V418H599.558ZM607.397 418.126C606.771 418.126 606.225 417.981 605.759 417.692C605.292 417.403 604.928 416.983 604.667 416.432C604.415 415.881 604.289 415.228 604.289 414.472C604.289 413.707 604.415 413.053 604.667 412.512C604.928 411.971 605.292 411.555 605.759 411.266C606.225 410.967 606.771 410.818 607.397 410.818C608.013 410.818 608.549 410.972 609.007 411.28C609.464 411.588 609.767 412.008 609.917 412.54H609.763L609.903 410.944H611.275C611.247 411.233 611.219 411.523 611.191 411.812C611.172 412.092 611.163 412.367 611.163 412.638V418H609.749V416.432H609.903C609.753 416.955 609.445 417.37 608.979 417.678C608.521 417.977 607.994 418.126 607.397 418.126ZM607.747 417.02C608.353 417.02 608.839 416.805 609.203 416.376C609.576 415.947 609.763 415.312 609.763 414.472C609.763 413.632 609.576 413.002 609.203 412.582C608.839 412.153 608.353 411.938 607.747 411.938C607.131 411.938 606.636 412.153 606.263 412.582C605.899 413.002 605.717 413.632 605.717 414.472C605.717 415.312 605.899 415.947 606.263 416.376C606.627 416.805 607.121 417.02 607.747 417.02ZM613.126 418V407.696H614.54V418H613.126Z" fill="#E3E0E6"/>
<path d="M433.4 481.144C432.248 481.144 431.267 480.909 430.456 480.44C429.645 479.971 429.021 479.304 428.584 478.44C428.157 477.565 427.944 476.536 427.944 475.352C427.944 474.168 428.157 473.144 428.584 472.28C429.021 471.416 429.645 470.749 430.456 470.28C431.267 469.811 432.248 469.576 433.4 469.576C434.2 469.576 434.915 469.693 435.544 469.928C436.173 470.163 436.723 470.504 437.192 470.952L436.616 472.28C436.104 471.843 435.603 471.528 435.112 471.336C434.632 471.144 434.072 471.048 433.432 471.048C432.216 471.048 431.288 471.421 430.648 472.168C430.008 472.915 429.688 473.976 429.688 475.352C429.688 476.728 430.008 477.795 430.648 478.552C431.288 479.299 432.216 479.672 433.432 479.672C434.072 479.672 434.632 479.576 435.112 479.384C435.603 479.192 436.104 478.872 436.616 478.424L437.192 479.752C436.723 480.2 436.173 480.547 435.544 480.792C434.915 481.027 434.2 481.144 433.4 481.144ZM441.931 481.144C441.131 481.144 440.437 480.979 439.851 480.648C439.264 480.307 438.811 479.827 438.491 479.208C438.171 478.579 438.011 477.832 438.011 476.968C438.011 476.104 438.171 475.363 438.491 474.744C438.811 474.115 439.264 473.635 439.851 473.304C440.437 472.963 441.131 472.792 441.931 472.792C442.731 472.792 443.424 472.963 444.011 473.304C444.608 473.635 445.067 474.115 445.387 474.744C445.717 475.363 445.883 476.104 445.883 476.968C445.883 477.832 445.717 478.579 445.387 479.208C445.067 479.827 444.608 480.307 444.011 480.648C443.424 480.979 442.731 481.144 441.931 481.144ZM441.931 479.88C442.635 479.88 443.195 479.635 443.611 479.144C444.027 478.653 444.235 477.928 444.235 476.968C444.235 476.008 444.027 475.288 443.611 474.808C443.195 474.317 442.635 474.072 441.931 474.072C441.237 474.072 440.683 474.317 440.267 474.808C439.851 475.288 439.643 476.008 439.643 476.968C439.643 477.928 439.845 478.653 440.251 479.144C440.667 479.635 441.227 479.88 441.931 479.88ZM447.639 481V474.936C447.639 474.605 447.629 474.275 447.607 473.944C447.597 473.603 447.575 473.267 447.543 472.936H449.111L449.287 475.016H449.031C449.138 474.515 449.319 474.099 449.575 473.768C449.831 473.437 450.141 473.192 450.503 473.032C450.877 472.872 451.266 472.792 451.671 472.792C451.842 472.792 451.986 472.803 452.103 472.824C452.221 472.835 452.338 472.856 452.455 472.888L452.439 474.328C452.258 474.253 452.098 474.211 451.959 474.2C451.831 474.179 451.671 474.168 451.479 474.168C451.01 474.168 450.61 474.275 450.279 474.488C449.949 474.691 449.698 474.968 449.527 475.32C449.357 475.672 449.271 476.051 449.271 476.456V481H447.639ZM457.221 481.144C455.92 481.144 454.896 480.776 454.149 480.04C453.403 479.304 453.029 478.285 453.029 476.984C453.029 476.141 453.189 475.405 453.509 474.776C453.84 474.147 454.293 473.661 454.869 473.32C455.456 472.968 456.133 472.792 456.901 472.792C457.659 472.792 458.293 472.952 458.805 473.272C459.317 473.592 459.707 474.045 459.973 474.632C460.24 475.208 460.373 475.891 460.373 476.68V477.192H454.293V476.264H459.269L458.997 476.472C458.997 475.672 458.816 475.053 458.453 474.616C458.101 474.168 457.589 473.944 456.917 473.944C456.171 473.944 455.595 474.205 455.189 474.728C454.784 475.24 454.581 475.949 454.581 476.856V477.016C454.581 477.965 454.811 478.68 455.269 479.16C455.739 479.64 456.4 479.88 457.253 479.88C457.723 479.88 458.16 479.816 458.565 479.688C458.981 479.549 459.376 479.325 459.749 479.016L460.277 480.12C459.904 480.451 459.451 480.707 458.917 480.888C458.384 481.059 457.819 481.144 457.221 481.144ZM471.013 481.144C469.445 481.144 468.277 480.749 467.509 479.96C466.752 479.171 466.373 478.003 466.373 476.456V469.72H468.037V476.424C468.037 477.512 468.272 478.333 468.741 478.888C469.221 479.432 469.979 479.704 471.013 479.704C471.995 479.704 472.736 479.432 473.237 478.888C473.739 478.333 473.989 477.512 473.989 476.424V469.72H475.621V476.456C475.621 478.003 475.232 479.171 474.453 479.96C473.675 480.749 472.528 481.144 471.013 481.144ZM477.959 484.456V474.872C477.959 474.563 477.943 474.248 477.911 473.928C477.89 473.597 477.863 473.267 477.831 472.936H479.399L479.559 474.76H479.383C479.554 474.152 479.895 473.672 480.407 473.32C480.93 472.968 481.548 472.792 482.263 472.792C482.978 472.792 483.602 472.963 484.135 473.304C484.668 473.635 485.079 474.109 485.367 474.728C485.666 475.347 485.815 476.093 485.815 476.968C485.815 477.832 485.666 478.579 485.367 479.208C485.079 479.837 484.668 480.317 484.135 480.648C483.602 480.979 482.978 481.144 482.263 481.144C481.559 481.144 480.946 480.973 480.423 480.632C479.911 480.28 479.57 479.805 479.399 479.208H479.575V484.456H477.959ZM481.863 479.88C482.567 479.88 483.127 479.635 483.543 479.144C483.97 478.653 484.183 477.928 484.183 476.968C484.183 476.008 483.97 475.288 483.543 474.808C483.127 474.317 482.567 474.072 481.863 474.072C481.159 474.072 480.594 474.317 480.167 474.808C479.751 475.288 479.543 476.008 479.543 476.968C479.543 477.928 479.751 478.653 480.167 479.144C480.594 479.635 481.159 479.88 481.863 479.88ZM490.697 481.144C489.993 481.144 489.369 480.979 488.825 480.648C488.292 480.317 487.876 479.837 487.577 479.208C487.289 478.579 487.145 477.832 487.145 476.968C487.145 476.093 487.289 475.347 487.577 474.728C487.876 474.109 488.292 473.635 488.825 473.304C489.369 472.963 489.993 472.792 490.697 472.792C491.39 472.792 491.998 472.968 492.521 473.32C493.054 473.661 493.406 474.131 493.577 474.728H493.385V469.224H495.001V481H493.401V479.176H493.593C493.412 479.784 493.06 480.264 492.537 480.616C492.014 480.968 491.401 481.144 490.697 481.144ZM491.097 479.88C491.79 479.88 492.35 479.635 492.777 479.144C493.204 478.653 493.417 477.928 493.417 476.968C493.417 476.008 493.204 475.288 492.777 474.808C492.35 474.317 491.79 474.072 491.097 474.072C490.393 474.072 489.828 474.317 489.401 474.808C488.985 475.288 488.777 476.008 488.777 476.968C488.777 477.928 488.985 478.653 489.401 479.144C489.828 479.635 490.393 479.88 491.097 479.88ZM500.347 481.144C499.632 481.144 499.008 480.979 498.475 480.648C497.942 480.317 497.526 479.837 497.227 479.208C496.939 478.579 496.795 477.832 496.795 476.968C496.795 476.093 496.939 475.347 497.227 474.728C497.526 474.109 497.942 473.635 498.475 473.304C499.008 472.963 499.632 472.792 500.347 472.792C501.051 472.792 501.664 472.968 502.187 473.32C502.71 473.672 503.056 474.152 503.227 474.76H503.051L503.211 472.936H504.779C504.747 473.267 504.715 473.597 504.683 473.928C504.662 474.248 504.651 474.563 504.651 474.872V481H503.035V479.208H503.211C503.04 479.805 502.688 480.28 502.155 480.632C501.632 480.973 501.03 481.144 500.347 481.144ZM500.747 479.88C501.44 479.88 501.995 479.635 502.411 479.144C502.838 478.653 503.051 477.928 503.051 476.968C503.051 476.008 502.838 475.288 502.411 474.808C501.995 474.317 501.44 474.072 500.747 474.072C500.043 474.072 499.478 474.317 499.051 474.808C498.635 475.288 498.427 476.008 498.427 476.968C498.427 477.928 498.635 478.653 499.051 479.144C499.467 479.635 500.032 479.88 500.747 479.88ZM510.045 481.144C509.17 481.144 508.509 480.909 508.061 480.44C507.613 479.96 507.389 479.245 507.389 478.296V474.184H505.821V472.936H507.389V470.808L509.005 470.376V472.936H511.245V474.184H509.005V478.152C509.005 478.749 509.112 479.176 509.325 479.432C509.538 479.688 509.848 479.816 510.253 479.816C510.456 479.816 510.632 479.8 510.781 479.768C510.941 479.725 511.085 479.677 511.213 479.624V480.936C511.053 481 510.866 481.048 510.653 481.08C510.44 481.123 510.237 481.144 510.045 481.144ZM516.271 481.144C514.97 481.144 513.946 480.776 513.199 480.04C512.453 479.304 512.079 478.285 512.079 476.984C512.079 476.141 512.239 475.405 512.559 474.776C512.89 474.147 513.343 473.661 513.919 473.32C514.506 472.968 515.183 472.792 515.951 472.792C516.709 472.792 517.343 472.952 517.855 473.272C518.367 473.592 518.757 474.045 519.023 474.632C519.29 475.208 519.423 475.891 519.423 476.68V477.192H513.343V476.264H518.319L518.047 476.472C518.047 475.672 517.866 475.053 517.503 474.616C517.151 474.168 516.639 473.944 515.967 473.944C515.221 473.944 514.645 474.205 514.239 474.728C513.834 475.24 513.631 475.949 513.631 476.856V477.016C513.631 477.965 513.861 478.68 514.319 479.16C514.789 479.64 515.45 479.88 516.303 479.88C516.773 479.88 517.21 479.816 517.615 479.688C518.031 479.549 518.426 479.325 518.799 479.016L519.327 480.12C518.954 480.451 518.501 480.707 517.967 480.888C517.434 481.059 516.869 481.144 516.271 481.144Z" fill="#8EAADE"/>
<path d="M472.032 436V427.54H473.016L476.352 435.052H475.992L479.328 427.54H480.3V436H479.28V429.028H479.652L476.52 436H475.812L472.68 429.028H473.052V436H472.032ZM484.452 436.108C483.924 436.108 483.46 435.984 483.06 435.736C482.66 435.488 482.348 435.128 482.124 434.656C481.9 434.184 481.788 433.624 481.788 432.976C481.788 432.328 481.9 431.772 482.124 431.308C482.348 430.836 482.66 430.476 483.06 430.228C483.46 429.98 483.924 429.856 484.452 429.856C484.988 429.856 485.452 429.992 485.844 430.264C486.244 430.528 486.508 430.892 486.636 431.356H486.492L486.624 429.964H487.68C487.656 430.204 487.632 430.444 487.608 430.684C487.592 430.924 487.584 431.16 487.584 431.392V436H486.492V434.62H486.624C486.496 435.076 486.232 435.44 485.832 435.712C485.44 435.976 484.98 436.108 484.452 436.108ZM484.704 435.244C485.248 435.244 485.684 435.052 486.012 434.668C486.34 434.284 486.504 433.72 486.504 432.976C486.504 432.232 486.34 431.672 486.012 431.296C485.684 430.92 485.248 430.732 484.704 430.732C484.16 430.732 483.72 430.92 483.384 431.296C483.056 431.672 482.892 432.232 482.892 432.976C482.892 433.72 483.056 434.284 483.384 434.668C483.712 435.052 484.152 435.244 484.704 435.244ZM489.302 436V431.44C489.302 431.2 489.294 430.956 489.278 430.708C489.27 430.452 489.25 430.204 489.218 429.964H490.274L490.406 431.476L490.226 431.488C490.306 431.12 490.442 430.816 490.634 430.576C490.834 430.328 491.07 430.148 491.342 430.036C491.622 429.916 491.91 429.856 492.206 429.856C492.334 429.856 492.442 429.86 492.53 429.868C492.618 429.876 492.706 429.896 492.794 429.928L492.77 430.9C492.65 430.852 492.538 430.824 492.434 430.816C492.338 430.8 492.218 430.792 492.074 430.792C491.722 430.792 491.418 430.872 491.162 431.032C490.914 431.192 490.722 431.404 490.586 431.668C490.458 431.932 490.394 432.216 490.394 432.52V436H489.302ZM497.295 436V435.052H499.275V428.488H499.839L497.475 429.952V428.86L499.587 427.54H500.391V435.052H502.251V436H497.295ZM506.502 436.108C505.534 436.108 504.79 435.736 504.27 434.992C503.75 434.24 503.49 433.164 503.49 431.764C503.49 430.34 503.75 429.264 504.27 428.536C504.79 427.8 505.534 427.432 506.502 427.432C507.478 427.432 508.222 427.8 508.734 428.536C509.254 429.264 509.514 430.336 509.514 431.752C509.514 433.16 509.254 434.24 508.734 434.992C508.214 435.736 507.47 436.108 506.502 436.108ZM506.502 435.16C507.142 435.16 507.618 434.884 507.93 434.332C508.25 433.78 508.41 432.92 508.41 431.752C508.41 430.584 508.25 429.732 507.93 429.196C507.618 428.652 507.142 428.38 506.502 428.38C505.87 428.38 505.394 428.652 505.074 429.196C504.754 429.732 504.594 430.584 504.594 431.752C504.594 432.92 504.754 433.78 505.074 434.332C505.394 434.884 505.87 435.16 506.502 435.16ZM511.282 437.428L510.79 437.044C511.014 436.812 511.166 436.592 511.246 436.384C511.326 436.184 511.366 435.976 511.366 435.76L511.606 436H510.73V434.668H512.062V435.592C512.062 435.936 512.006 436.252 511.894 436.54C511.782 436.836 511.578 437.132 511.282 437.428ZM516.783 436V435.172L519.735 432.076C520.119 431.684 520.403 431.308 520.587 430.948C520.779 430.588 520.875 430.216 520.875 429.832C520.875 429.36 520.727 429.004 520.431 428.764C520.143 428.516 519.719 428.392 519.159 428.392C518.727 428.392 518.319 428.472 517.935 428.632C517.559 428.784 517.199 429.02 516.855 429.34L516.459 428.488C516.787 428.168 517.199 427.912 517.695 427.72C518.199 427.528 518.727 427.432 519.279 427.432C520.143 427.432 520.811 427.632 521.283 428.032C521.755 428.424 521.991 428.988 521.991 429.724C521.991 430.26 521.859 430.772 521.595 431.26C521.339 431.74 520.959 432.236 520.455 432.748L517.875 435.364V435.052H522.339V436H516.783ZM526.458 436.108C525.49 436.108 524.746 435.736 524.226 434.992C523.706 434.24 523.446 433.164 523.446 431.764C523.446 430.34 523.706 429.264 524.226 428.536C524.746 427.8 525.49 427.432 526.458 427.432C527.434 427.432 528.178 427.8 528.69 428.536C529.21 429.264 529.47 430.336 529.47 431.752C529.47 433.16 529.21 434.24 528.69 434.992C528.17 435.736 527.426 436.108 526.458 436.108ZM526.458 435.16C527.098 435.16 527.574 434.884 527.886 434.332C528.206 433.78 528.366 432.92 528.366 431.752C528.366 430.584 528.206 429.732 527.886 429.196C527.574 428.652 527.098 428.38 526.458 428.38C525.826 428.38 525.35 428.652 525.03 429.196C524.71 429.732 524.55 430.584 524.55 431.752C524.55 432.92 524.71 433.78 525.03 434.332C525.35 434.884 525.826 435.16 526.458 435.16ZM530.973 436V435.172L533.925 432.076C534.309 431.684 534.593 431.308 534.777 430.948C534.969 430.588 535.065 430.216 535.065 429.832C535.065 429.36 534.917 429.004 534.621 428.764C534.333 428.516 533.909 428.392 533.349 428.392C532.917 428.392 532.509 428.472 532.125 428.632C531.749 428.784 531.389 429.02 531.045 429.34L530.649 428.488C530.977 428.168 531.389 427.912 531.885 427.72C532.389 427.528 532.917 427.432 533.469 427.432C534.333 427.432 535.001 427.632 535.473 428.032C535.945 428.424 536.181 428.988 536.181 429.724C536.181 430.26 536.049 430.772 535.785 431.26C535.529 431.74 535.149 432.236 534.645 432.748L532.065 435.364V435.052H536.529V436H530.973ZM541.596 436V434.212H537.624V433.408L541.776 427.54H542.688V433.324H543.96V434.212H542.688V436H541.596ZM541.596 433.324V428.86H541.872L538.524 433.588V433.324H541.596Z" fill="#968F9C"/>
<rect x="427" y="405" width="32" height="32" rx="4" fill="#528EF8"/>
<path d="M450.625 421.188C450.625 425.625 447.594 428.75 443.125 428.75C438.812 428.75 435.375 425.312 435.375 421C435.375 416.719 438.812 413.25 443.125 413.25C445.188 413.25 446.969 414.031 448.312 415.281L446.188 417.312C443.438 414.656 438.312 416.656 438.312 421C438.312 423.719 440.469 425.906 443.125 425.906C446.188 425.906 447.344 423.719 447.5 422.562H443.125V419.906H450.5C450.562 420.312 450.625 420.688 450.625 421.188Z" fill="white"/>
<rect opacity="0.1" x="427" y="497" width="159" height="7" rx="3.5" fill="white"/>
<rect opacity="0.1" x="427" y="512" width="130" height="7" rx="3.5" fill="white"/>
<rect opacity="0.1" x="427" y="527" width="130" height="7" rx="3.5" fill="white"/>
<line x1="407" y1="452.5" x2="637" y2="452.5" stroke="#47424B"/>
</g>
<defs>
<filter id="filter0_f_241_2851" x="0.212646" y="0.5" width="816.793" height="778" filterUnits="userSpaceOnUse" color-interpolation-filters="sRGB">
<feFlood flood-opacity="0" result="BackgroundImageFix"/>
<feBlend mode="normal" in="SourceGraphic" in2="BackgroundImageFix" result="shape"/>
<feGaussianBlur stdDeviation="100" result="effect1_foregroundBlur_241_2851"/>
</filter>
<filter id="filter1_d_241_2851" x="371.5" y="372.5" width="301" height="241" filterUnits="userSpaceOnUse" color-interpolation-filters="sRGB">
<feFlood flood-opacity="0" result="BackgroundImageFix"/>
<feColorMatrix in="SourceAlpha" type="matrix" values="0 0 0 0 0 0 0 0 0 0 0 0 0 0 0 0 0 0 127 0" result="hardAlpha"/>
<feMorphology radius="15" operator="erode" in="SourceAlpha" result="effect1_dropShadow_241_2851"/>
<feOffset dy="20"/>
<feGaussianBlur stdDeviation="25"/>
<feComposite in2="hardAlpha" operator="out"/>
<feColorMatrix type="matrix" values="0 0 0 0 0.169056 0 0 0 0 0.126747 0 0 0 0 0.180447 0 0 0 1 0"/>
<feBlend mode="normal" in2="BackgroundImageFix" result="effect1_dropShadow_241_2851"/>
<feBlend mode="normal" in="SourceGraphic" in2="effect1_dropShadow_241_2851" result="shape"/>
</filter>
<linearGradient id="paint0_linear_241_2851" x1="390.961" y1="328.5" x2="390.961" y2="408.929" gradientUnits="userSpaceOnUse">
<stop stop-color="#8C74CC" stop-opacity="0.1"/>
<stop offset="1" stop-color="#8C74CC" stop-opacity="0"/>
</linearGradient>
</defs>
</svg>
